{"glyphs":{"0":{"ha":814,"x_min":68,"x_max":747,"o":"m 744 775 q 742 649 746 693 q 675 319 728 469 q 603 167 643 232 q 532 76 569 113 q 385 10 467 13 q 374 10 379 10 q 206 76 278 10 q 139 168 167 113 q 75 389 88 269 q 69 494 69 451 l 69 508 q 78 636 71 594 q 83 669 81 647 q 88 697 85 688 q 118 832 97 757 q 135 893 129 869 q 160 965 142 922 q 260 1126 200 1058 q 335 1190 293 1164 q 501 1224 410 1239 q 633 1151 582 1211 q 683 1074 664 1117 q 725 944 710 1015 q 744 775 742 871 m 644 713 q 644 757 646 742 q 613 963 640 864 q 551 1101 590 1046 q 500 1154 528 1135 q 463 1157 481 1165 q 410 1119 432 1143 q 326 994 365 1074 q 283 893 310 961 q 265 847 271 863 q 264 842 264 846 l 263 839 q 228 639 239 747 q 225 557 225 590 q 228 440 224 496 q 260 240 233 339 q 317 115 278 174 q 351 79 332 93 q 388 75 368 68 q 411 86 401 79 q 506 179 467 121 q 597 381 564 268 q 628 506 617 444 q 640 597 635 549 q 644 692 644 636 q 644 713 644 700 z "},"1":{"ha":342,"x_min":68,"x_max":274,"o":"m 272 1106 q 271 1049 274 1068 q 263 936 267 1011 q 256 840 258 872 q 250 758 253 814 q 243 674 246 703 q 235 538 239 628 q 226 415 229 456 q 221 338 224 389 q 213 235 217 269 q 210 190 211 221 q 201 117 206 142 q 200 93 200 108 q 193 39 199 75 q 192 24 192 29 q 178 -8 188 3 q 144 -22 168 -18 q 132 -24 139 -24 q 100 -17 117 -24 q 69 25 71 -7 l 69 32 q 69 81 69 64 q 71 106 71 89 q 76 204 74 171 q 82 274 79 226 q 88 353 85 326 q 93 411 90 372 q 97 472 96 453 q 103 531 100 492 q 108 592 106 571 q 114 661 110 614 q 118 721 115 701 q 124 797 121 747 q 131 872 128 847 q 135 939 132 894 q 139 985 138 969 l 140 1000 q 149 1090 144 1061 q 153 1124 150 1101 q 157 1143 156 1136 q 193 1178 161 1172 q 236 1176 217 1182 q 272 1132 272 1167 q 272 1106 272 1122 z "},"2":{"ha":917,"x_min":63,"x_max":851,"o":"m 844 135 q 844 96 851 115 q 815 50 836 68 q 676 -22 753 -3 q 526 -43 603 -43 q 463 -39 494 -43 q 297 11 369 -29 q 253 35 274 24 q 186 58 217 53 q 164 60 175 60 q 114 58 143 57 q 89 65 100 60 q 75 75 79 69 q 75 100 64 89 q 90 115 81 107 q 104 125 96 118 q 126 142 119 136 q 253 261 199 206 l 258 267 q 319 332 300 310 q 424 464 369 385 q 574 790 522 608 q 597 993 600 886 q 592 1049 597 1026 q 565 1110 585 1085 q 553 1125 560 1118 q 515 1135 538 1139 q 413 1082 461 1125 q 307 939 347 1024 q 304 932 307 936 q 297 917 300 922 q 271 900 289 903 q 242 910 253 899 q 233 932 235 918 q 240 967 233 947 q 290 1060 257 1017 q 376 1142 329 1110 q 511 1192 439 1185 q 621 1174 574 1197 q 713 1068 686 1142 q 728 990 722 1038 q 729 917 731 958 q 711 792 729 867 q 639 599 689 697 q 572 478 599 518 q 463 333 531 413 q 378 249 426 293 q 351 221 369 239 q 338 208 340 211 q 244 131 308 179 l 242 126 q 236 124 239 126 q 231 119 232 121 q 238 118 232 118 q 243 117 242 118 q 328 92 288 108 q 400 58 353 82 l 410 54 q 525 25 469 24 q 713 82 636 28 q 757 115 728 93 q 779 140 771 126 q 804 156 788 151 q 835 149 822 158 q 844 135 842 144 z "},"3":{"ha":894,"x_min":68,"x_max":831,"o":"m 683 654 q 601 615 647 633 l 596 614 l 597 613 q 628 601 618 606 q 778 467 725 564 q 810 353 801 422 q 807 256 815 306 q 792 201 803 235 q 725 74 769 136 q 674 11 697 35 q 494 -76 597 -62 q 439 -81 468 -81 q 414 -79 426 -81 q 247 -31 326 -75 q 181 26 214 -11 q 117 111 144 65 q 74 225 86 163 q 69 278 71 243 l 69 288 q 93 328 68 311 q 125 332 107 339 q 138 307 143 325 q 139 292 136 299 q 157 244 150 263 l 161 236 q 175 196 171 210 q 289 29 203 103 q 346 -4 314 8 q 436 -11 386 -22 q 503 19 469 -6 q 550 60 529 38 q 633 182 603 118 q 668 342 669 256 q 664 410 668 382 q 604 529 654 478 q 556 561 583 550 q 514 574 531 569 q 476 588 494 578 q 457 603 464 593 q 461 631 446 619 q 483 643 468 638 l 485 643 q 497 647 490 644 q 547 667 531 660 q 607 704 583 685 q 663 783 643 736 q 689 865 675 813 q 696 900 694 889 q 693 1026 706 964 q 663 1089 685 1064 q 592 1118 633 1121 q 500 1092 550 1114 q 346 947 404 1047 q 333 918 339 936 q 306 900 326 899 q 289 903 297 900 q 269 929 271 910 q 271 950 269 938 q 276 965 272 956 q 383 1097 313 1047 q 499 1154 436 1133 q 649 1165 575 1181 q 719 1140 688 1157 q 811 1022 785 1103 q 824 906 829 968 q 796 788 818 844 q 683 654 763 703 z "},"4":{"ha":879,"x_min":68,"x_max":811,"o":"m 810 1124 q 808 1078 810 1099 q 800 1003 806 1053 q 797 975 799 983 q 794 950 796 968 l 792 931 l 790 932 q 786 896 789 919 q 775 803 779 833 q 750 604 765 736 q 726 418 736 481 q 718 356 724 397 q 704 256 708 289 q 697 217 701 243 q 690 168 693 183 q 678 103 686 146 q 674 74 675 85 q 672 71 672 72 l 667 38 q 654 -40 658 -14 q 646 -92 650 -71 q 622 -133 642 -110 q 604 -143 617 -139 q 582 -144 593 -144 q 542 -136 563 -144 q 517 -107 521 -129 q 514 -65 511 -81 q 539 117 524 -4 q 557 254 550 208 q 564 307 558 272 q 578 410 572 375 q 590 494 583 438 q 597 540 594 525 q 599 556 599 549 q 585 554 593 556 q 547 547 571 551 q 474 535 497 539 q 351 528 432 528 q 264 535 310 526 q 139 582 192 547 q 106 610 119 594 q 75 676 81 640 q 69 749 68 710 l 69 757 q 82 869 74 832 q 83 876 83 872 q 101 994 88 915 l 101 996 q 143 1151 119 1089 q 157 1183 150 1171 q 192 1210 169 1204 q 236 1206 214 1217 q 254 1181 253 1197 q 254 1157 256 1165 q 247 1110 251 1129 q 244 1099 246 1104 q 235 1028 242 1071 q 201 760 210 850 q 200 678 197 721 q 204 650 200 665 q 231 613 210 626 q 283 592 254 596 q 367 588 315 586 q 547 617 428 589 l 554 618 q 575 624 561 619 q 603 629 593 628 q 613 639 611 632 q 624 706 615 661 q 642 810 633 763 l 653 868 q 706 1090 671 967 q 722 1135 713 1115 q 779 1160 739 1168 q 810 1124 808 1154 z "},"5":{"ha":960,"x_min":65,"x_max":893,"o":"m 881 1122 q 891 1101 893 1113 q 875 1085 889 1090 q 856 1079 865 1081 q 767 1086 810 1075 q 594 1115 679 1108 q 574 1117 588 1115 q 458 1133 535 1122 l 418 1139 q 400 1142 407 1140 q 385 1142 388 1143 q 383 1129 383 1140 q 376 1061 383 1106 l 375 1049 q 369 993 374 1031 q 356 889 361 924 q 339 792 349 857 q 328 728 332 749 q 324 708 328 721 q 321 692 322 697 q 322 692 321 692 q 326 692 324 692 q 333 693 329 693 l 336 693 q 461 706 396 706 q 524 701 500 706 q 546 700 531 700 q 560 699 556 699 q 576 696 568 697 q 590 693 582 694 q 603 690 599 692 q 718 649 664 679 q 793 586 758 628 q 854 472 836 535 q 875 381 871 417 q 806 139 889 247 q 660 6 746 61 q 510 -53 592 -39 q 438 -58 468 -58 q 435 -58 438 -58 q 321 -40 375 -58 q 176 50 240 -11 l 172 54 q 142 86 151 75 q 85 196 106 132 q 75 229 82 207 l 72 240 q 74 274 67 257 q 93 289 78 288 q 111 286 103 289 q 131 269 126 282 q 140 253 132 264 q 144 247 143 250 q 154 233 149 242 q 203 151 189 181 q 249 85 217 117 q 299 44 275 61 q 350 17 324 26 q 422 8 385 3 q 554 64 496 21 q 679 203 631 121 q 711 286 697 236 q 711 472 733 369 q 675 564 700 521 q 592 628 649 610 q 529 640 572 635 q 517 643 521 642 q 403 643 461 650 q 338 631 378 639 q 263 629 300 622 q 238 639 249 632 q 214 681 213 653 q 215 693 214 685 q 217 724 215 714 q 222 775 219 740 q 231 849 226 824 q 238 890 233 863 q 256 988 249 956 q 292 1142 275 1086 q 306 1182 299 1164 q 363 1206 322 1219 q 372 1200 368 1203 q 396 1196 379 1196 l 401 1194 q 467 1192 444 1193 q 542 1183 492 1189 q 583 1179 569 1181 q 617 1176 594 1178 q 674 1169 654 1171 q 788 1156 714 1168 q 863 1133 835 1147 q 881 1122 875 1128 z "},"6":{"ha":842,"x_min":64,"x_max":785,"o":"m 767 433 q 751 249 785 336 q 721 176 735 204 q 611 31 679 88 q 542 -11 579 4 q 463 -32 504 -26 q 415 -35 436 -35 q 386 -33 400 -35 q 188 82 261 -18 q 121 190 151 133 q 78 332 88 256 q 72 485 65 419 q 110 676 76 563 q 188 874 139 779 q 358 1121 258 1010 q 442 1194 401 1168 q 511 1221 479 1217 q 547 1219 528 1224 q 571 1210 561 1218 q 576 1197 576 1204 q 571 1183 576 1189 q 567 1181 568 1182 q 476 1099 525 1156 q 401 993 439 1054 q 304 822 342 901 q 246 657 271 750 q 219 536 229 599 q 224 539 221 538 q 247 551 231 543 q 286 571 274 565 q 465 621 371 614 q 589 608 535 625 q 714 535 668 585 q 767 433 757 489 m 664 333 q 658 428 668 388 q 563 546 638 508 q 510 558 538 558 q 500 558 504 558 q 413 538 453 554 q 336 499 379 524 q 258 460 290 472 q 236 449 251 456 q 219 442 225 444 q 210 426 210 438 q 219 315 213 360 q 256 194 232 246 q 313 96 278 149 q 372 38 338 60 q 411 25 393 25 q 471 35 443 25 q 560 99 519 54 q 629 206 606 147 q 664 333 661 282 z "},"7":{"ha":794,"x_min":68,"x_max":733,"o":"m 711 1147 q 721 1108 733 1132 q 714 1097 718 1104 q 560 856 640 994 q 463 679 506 763 q 458 669 460 672 q 469 668 461 669 q 531 664 492 667 q 567 656 549 663 q 585 633 588 647 q 565 617 582 621 q 517 610 549 611 l 515 610 q 490 608 507 610 q 435 607 454 606 q 425 600 429 607 q 417 581 422 594 q 401 546 406 558 q 367 465 390 519 q 299 299 319 354 q 257 189 285 263 q 235 132 242 150 q 218 88 226 107 q 196 51 210 67 q 179 26 189 44 q 174 15 175 19 q 169 8 172 14 q 154 -14 160 -7 q 111 -36 138 -36 q 86 -31 99 -36 q 69 -3 69 -21 q 71 19 69 7 q 72 33 71 25 q 75 78 75 63 q 86 124 76 96 q 139 269 118 213 q 238 513 169 351 q 267 583 258 561 l 269 588 q 278 608 275 601 q 278 610 278 610 q 276 611 276 611 q 265 611 272 611 l 243 613 q 208 615 219 614 q 178 625 190 617 q 171 639 171 631 q 179 653 171 647 q 200 660 188 658 q 274 667 226 664 q 286 668 278 667 q 300 668 294 668 q 307 674 304 668 q 308 676 307 675 q 310 679 308 678 q 450 936 361 790 q 546 1075 497 1013 q 563 1096 551 1082 q 571 1106 568 1103 q 536 1108 560 1107 l 526 1108 q 325 1119 458 1111 l 293 1121 q 246 1125 279 1122 l 244 1125 q 119 1144 186 1129 q 99 1151 113 1146 l 93 1154 q 78 1163 85 1157 q 74 1178 72 1169 q 83 1190 75 1186 q 110 1196 94 1196 l 111 1196 q 140 1193 131 1196 q 197 1188 160 1190 q 235 1185 210 1186 q 335 1179 301 1179 q 499 1171 389 1178 q 592 1165 560 1167 q 639 1164 607 1164 q 657 1163 651 1164 q 690 1157 672 1163 q 711 1147 703 1154 z "},"8":{"ha":881,"x_min":68,"x_max":814,"o":"m 642 633 q 515 576 589 606 q 501 572 506 574 q 508 568 504 569 q 513 564 511 565 q 535 550 519 560 q 583 517 567 528 q 671 432 633 481 q 735 272 729 360 q 715 150 738 211 q 625 18 685 69 q 504 -43 571 -28 q 410 -56 464 -53 q 400 -56 406 -56 q 213 -6 308 -56 q 86 135 122 42 q 69 226 69 178 q 188 519 71 393 q 311 600 239 575 q 314 601 313 601 q 307 608 310 606 q 246 672 271 640 q 185 792 200 731 q 175 882 172 838 q 208 1017 179 956 q 324 1156 250 1103 q 508 1219 407 1214 q 535 1218 518 1219 q 542 1218 539 1218 q 718 1140 646 1210 q 779 1049 754 1106 q 811 903 810 975 q 800 819 813 861 q 715 682 776 740 q 642 633 688 657 m 392 539 q 319 496 346 526 q 313 489 318 493 q 303 476 306 481 q 211 235 226 378 l 211 233 q 222 142 206 199 q 285 47 240 79 q 331 21 303 33 q 404 6 369 3 q 513 40 465 8 q 596 138 565 76 q 621 264 628 200 q 546 428 613 356 q 469 492 511 464 q 411 531 451 504 l 401 538 q 394 540 399 540 q 392 539 393 540 m 424 631 q 433 633 428 632 q 524 676 483 654 q 579 714 558 694 q 661 854 638 769 q 671 908 671 885 q 661 1007 672 963 q 624 1100 649 1060 q 568 1151 604 1129 q 528 1163 549 1163 q 515 1163 522 1163 q 374 1096 431 1149 q 283 926 290 1018 q 317 746 275 821 q 411 636 351 685 q 418 631 414 633 q 424 631 421 629 z "},"9":{"ha":778,"x_min":68,"x_max":710,"o":"m 708 775 q 706 731 710 753 q 704 719 704 725 q 674 518 696 625 q 599 292 649 401 q 481 113 553 193 l 474 104 q 426 51 442 68 q 347 -8 386 10 q 288 -28 328 -17 q 181 -46 231 -44 q 171 -47 175 -47 q 115 -36 140 -47 q 86 -15 93 -28 q 79 21 79 -1 q 92 38 79 33 q 129 36 111 46 q 140 24 138 32 q 142 18 142 21 q 144 14 143 15 q 152 2 149 4 q 164 1 156 0 q 275 51 236 11 q 351 138 322 101 q 497 397 446 253 q 547 569 532 492 q 568 696 564 650 q 571 714 569 701 q 572 726 572 722 q 569 719 571 722 q 453 558 526 631 q 303 490 388 496 q 126 572 194 485 q 74 714 83 631 q 69 788 68 753 q 83 872 71 826 q 144 1024 106 956 q 215 1117 176 1079 q 342 1185 267 1168 q 471 1189 401 1199 q 581 1136 536 1179 q 685 974 657 1067 q 707 846 701 917 q 708 803 708 832 q 708 775 708 785 m 435 1139 q 432 1139 433 1139 q 338 1104 376 1136 q 275 1028 304 1076 q 217 885 239 967 q 199 781 201 829 q 199 749 197 771 q 200 733 200 739 q 226 618 201 669 q 268 561 243 583 q 301 554 283 546 q 308 556 304 554 q 315 560 313 558 q 365 592 343 572 q 453 700 417 640 q 538 935 515 803 l 538 940 q 556 992 544 976 q 557 1006 560 996 q 540 1072 550 1031 q 532 1088 538 1081 q 463 1133 507 1118 q 435 1139 447 1139 z "},"\u0000":{"ha":0,"x_min":0,"x_max":0,"o":""},"\n":{"ha":0,"x_min":0,"x_max":0,"o":""},"\r":{"ha":0,"x_min":0,"x_max":0,"o":""}," ":{"ha":465,"x_min":0,"x_max":0,"o":""},"!":{"ha":421,"x_min":65,"x_max":351,"o":"m 350 1371 q 350 1321 351 1338 q 349 1263 350 1301 q 342 1149 346 1186 q 331 1038 338 1111 q 319 928 324 965 q 313 865 317 907 q 304 786 308 813 q 296 709 301 760 q 288 632 290 658 q 281 571 285 613 q 274 504 276 526 q 261 397 268 469 q 256 335 258 356 q 250 293 254 321 q 247 275 247 281 q 214 240 242 247 q 188 238 200 238 q 151 244 168 238 q 124 289 121 257 q 129 361 125 313 q 132 401 131 385 q 150 585 139 460 q 164 724 158 676 q 171 806 167 750 q 183 929 179 889 q 193 1017 188 958 q 201 1090 197 1065 q 222 1258 213 1194 q 244 1369 229 1296 l 246 1378 q 260 1406 250 1397 q 289 1415 269 1414 q 315 1414 303 1417 q 350 1371 349 1404 m 222 157 q 243 79 264 128 q 203 29 231 50 q 154 13 182 13 q 139 14 147 13 q 133 15 138 14 q 118 17 122 17 q 79 42 92 24 q 71 86 67 61 q 107 159 78 129 q 179 178 136 189 q 222 157 199 172 z "},"\"":{"ha":544,"x_min":64,"x_max":476,"o":"m 192 1310 q 249 1284 229 1310 q 271 1224 269 1258 l 271 1222 q 244 1146 268 1181 q 222 1124 236 1133 q 136 1076 179 1094 q 113 1068 126 1072 q 100 1067 107 1067 q 96 1067 99 1067 q 73 1080 78 1068 q 82 1104 68 1092 l 83 1106 q 99 1117 89 1110 l 101 1118 q 136 1149 121 1132 q 147 1163 143 1154 q 149 1164 149 1164 q 147 1164 147 1164 q 142 1164 146 1164 q 135 1164 138 1164 l 133 1164 q 118 1167 124 1165 q 76 1194 88 1172 q 74 1244 64 1215 q 79 1258 75 1249 l 82 1263 q 150 1308 100 1306 q 179 1310 160 1310 q 192 1310 188 1310 m 457 1278 q 475 1226 475 1257 l 475 1225 q 460 1165 469 1186 q 442 1142 453 1150 l 440 1140 q 343 1067 376 1092 q 317 1057 332 1057 q 307 1058 313 1057 q 293 1068 297 1061 q 292 1085 289 1075 q 307 1108 294 1096 l 315 1119 q 338 1144 331 1136 q 349 1158 344 1153 q 353 1169 354 1168 q 343 1171 353 1171 q 336 1172 340 1171 q 333 1174 333 1174 q 290 1204 304 1176 q 296 1263 276 1235 q 375 1315 325 1306 q 417 1314 399 1321 q 432 1303 429 1308 q 446 1286 435 1297 q 457 1278 453 1281 z "},"#":{"ha":1589,"x_min":67,"x_max":1529,"o":"m 1511 793 q 1513 758 1528 776 q 1488 743 1503 749 q 1447 736 1464 736 l 1443 736 q 1243 739 1310 736 q 1161 742 1215 742 q 1119 742 1135 742 q 1104 731 1108 742 q 1089 692 1099 717 q 1082 675 1085 681 l 965 375 q 958 353 958 356 q 975 351 961 351 l 981 351 q 1029 351 997 351 q 1126 351 1092 351 q 1276 356 1185 353 q 1349 351 1304 357 q 1385 338 1371 349 q 1394 318 1394 329 q 1383 299 1394 307 q 1363 289 1376 293 q 1317 283 1342 283 l 1315 283 q 1185 283 1272 283 l 1131 283 l 1131 285 l 1085 285 q 954 285 997 285 q 932 283 935 285 q 922 263 929 281 q 890 185 913 240 q 869 133 876 150 q 851 86 863 115 q 831 33 840 57 q 785 -76 815 -4 q 760 -136 768 -118 q 740 -174 751 -157 q 694 -201 724 -199 q 675 -203 685 -203 q 653 -201 664 -203 q 628 -193 639 -200 q 614 -165 614 -182 q 621 -131 614 -150 l 628 -111 q 664 -11 651 -44 q 732 171 686 49 q 771 274 761 246 q 775 286 775 285 q 763 288 772 288 q 599 288 706 288 l 546 289 q 540 288 542 288 q 536 288 538 288 q 527 282 529 288 q 522 269 525 276 l 503 215 q 454 76 469 122 q 413 -43 439 36 q 382 -131 392 -100 q 371 -156 378 -140 q 336 -186 361 -178 q 261 -187 297 -199 q 244 -181 253 -185 q 229 -149 228 -169 q 236 -119 229 -137 q 261 -47 244 -96 q 297 51 286 21 q 374 272 340 174 q 378 288 379 285 q 361 289 376 289 l 340 289 q 260 289 286 289 q 174 292 231 289 q 121 293 139 293 q 86 300 103 293 q 69 318 71 306 q 88 340 68 333 q 122 346 106 346 q 157 347 133 347 q 243 350 214 350 q 333 350 274 350 q 372 350 360 350 l 375 350 q 385 350 381 350 q 400 353 397 351 q 407 367 403 356 q 469 540 431 432 q 525 693 486 586 l 538 728 q 539 733 538 729 q 540 738 540 736 q 546 754 546 753 q 528 757 543 756 q 463 760 506 758 l 432 761 q 310 767 350 764 q 296 767 306 767 q 235 774 256 769 q 213 783 221 778 q 204 798 204 789 q 213 814 204 807 q 238 822 224 821 q 249 824 242 824 q 290 828 276 828 q 296 828 290 828 q 543 828 388 828 q 553 828 546 828 q 572 830 569 828 q 581 850 575 832 l 592 879 q 725 1228 679 1113 q 746 1276 731 1243 q 756 1297 753 1290 q 758 1303 756 1299 l 760 1306 q 788 1338 772 1329 q 835 1342 803 1346 q 864 1307 864 1339 q 860 1281 863 1293 l 856 1267 q 835 1193 843 1217 q 756 950 808 1110 q 724 851 735 883 l 724 850 q 717 831 719 838 q 717 829 717 829 q 719 829 718 829 q 740 828 728 828 q 786 828 756 828 q 871 826 843 828 q 915 825 886 826 q 960 824 944 824 l 965 824 q 983 826 979 824 q 993 846 986 829 l 996 854 q 1115 1156 1075 1056 q 1200 1349 1168 1286 q 1221 1385 1213 1372 q 1261 1413 1235 1406 q 1311 1410 1288 1421 q 1335 1375 1336 1400 q 1332 1351 1335 1361 l 1331 1347 q 1314 1288 1319 1307 q 1226 1047 1288 1206 q 1172 904 1208 1000 q 1147 840 1156 863 l 1146 838 q 1143 831 1144 832 q 1142 824 1142 825 l 1147 822 l 1157 822 q 1238 819 1211 819 q 1407 818 1303 818 q 1458 814 1425 818 l 1467 813 q 1496 804 1478 811 q 1511 793 1504 800 m 786 351 q 806 365 803 351 q 808 369 807 367 q 808 372 808 371 l 946 726 q 950 738 950 735 q 951 744 951 743 q 946 746 950 744 q 939 746 943 746 q 760 751 826 746 l 739 751 q 700 751 711 751 l 699 751 q 688 743 690 751 q 683 733 686 740 q 676 714 679 721 q 624 561 658 663 l 596 481 q 558 369 569 403 q 553 353 554 358 l 553 351 l 554 351 q 563 351 557 351 q 626 351 589 351 q 786 351 733 351 z "},"$":{"ha":972,"x_min":67,"x_max":908,"o":"m 894 958 q 900 892 908 928 q 865 857 894 860 q 821 882 833 854 q 814 899 817 892 q 760 986 803 940 q 686 1043 728 1021 q 672 1051 678 1049 q 664 1053 665 1054 q 661 1046 663 1051 q 651 982 654 1007 q 643 918 649 960 q 625 793 632 835 q 614 717 621 768 q 607 667 610 683 q 599 610 603 633 q 608 576 594 590 q 697 471 646 539 q 797 303 764 383 q 831 86 844 186 q 763 -53 818 0 q 668 -107 722 -90 q 515 -121 593 -129 q 491 -122 493 -119 q 485 -144 489 -124 l 485 -146 q 475 -194 482 -167 q 424 -236 465 -236 q 421 -236 422 -236 q 386 -233 404 -236 q 347 -179 344 -224 q 354 -108 349 -156 l 356 -99 q 357 -76 358 -81 q 344 -67 356 -72 q 338 -62 339 -64 q 186 39 249 -12 q 154 61 175 46 q 138 74 143 69 q 106 107 117 89 q 94 122 101 113 q 83 136 88 132 q 72 158 75 149 q 72 182 67 171 q 92 196 78 193 q 142 186 122 204 q 233 113 171 160 q 289 69 271 85 q 335 38 304 58 q 347 29 343 32 q 369 17 356 24 l 372 15 q 373 19 372 15 q 374 28 374 22 l 375 32 q 381 67 376 44 q 392 143 388 118 q 421 332 406 221 q 454 553 433 421 q 449 574 457 564 q 383 646 414 613 q 353 681 374 658 q 285 760 306 732 q 239 831 256 796 q 219 907 224 867 q 251 1022 214 969 q 328 1092 281 1061 q 486 1142 397 1133 q 518 1143 497 1142 q 543 1144 535 1144 q 550 1147 549 1146 q 553 1154 551 1147 q 574 1261 564 1211 q 586 1303 578 1281 q 621 1329 594 1326 q 664 1322 643 1331 q 683 1294 682 1314 l 683 1293 q 685 1261 685 1272 q 681 1221 683 1247 q 679 1210 679 1210 l 679 1204 l 676 1185 q 672 1142 674 1157 q 673 1128 671 1131 q 686 1121 675 1125 q 740 1101 711 1114 q 865 1007 807 1071 q 894 958 882 988 m 536 1061 q 538 1075 538 1071 q 538 1077 538 1076 q 536 1078 538 1078 q 513 1075 524 1076 q 388 1008 439 1064 q 361 960 367 986 q 368 865 350 910 q 404 800 381 833 q 454 743 419 781 q 474 722 467 729 q 479 717 476 719 q 488 751 485 740 q 501 843 492 782 l 507 878 q 508 890 507 885 l 532 1038 q 534 1050 533 1046 q 536 1061 535 1054 m 503 -35 q 503 -42 503 -40 q 510 -44 504 -43 q 572 -35 543 -51 q 622 11 603 -17 q 661 119 649 47 q 649 257 664 192 q 572 419 629 332 q 571 421 572 421 q 568 407 569 417 l 568 404 q 539 211 558 339 l 538 200 q 521 85 531 161 q 514 42 517 58 q 513 26 514 36 q 504 -19 508 -4 q 503 -35 503 -25 z "},"%":{"ha":1007,"x_min":65,"x_max":972,"o":"m 635 704 q 519 453 599 619 l 508 428 q 450 303 488 385 q 350 90 385 161 l 349 86 q 218 -174 265 -89 q 217 -175 218 -175 q 144 -224 194 -224 q 135 -222 140 -224 q 92 -214 111 -222 q 69 -172 67 -201 q 78 -149 71 -164 q 79 -143 79 -146 q 210 157 118 -42 l 215 171 q 390 551 274 299 l 404 581 q 544 867 456 690 q 584 946 558 893 q 624 1025 610 999 q 638 1053 628 1035 q 719 1201 688 1154 q 750 1242 738 1229 q 815 1254 776 1265 q 839 1222 839 1249 q 831 1178 839 1203 q 789 1064 814 1122 q 635 704 699 854 m 919 214 q 878 -86 972 54 q 718 -171 821 -171 q 708 -171 714 -171 q 639 -160 665 -169 q 531 -51 563 -132 q 510 49 507 6 q 564 228 517 158 q 594 265 578 250 l 596 268 q 618 293 613 283 q 644 313 625 304 q 836 310 743 356 q 919 214 897 281 m 808 86 l 808 88 q 810 97 810 90 q 810 118 811 111 q 774 232 808 183 q 756 253 765 244 q 749 256 751 256 q 744 254 746 256 q 697 219 710 243 q 692 208 696 217 q 682 192 685 197 q 653 33 644 111 q 676 -58 658 -19 q 706 -96 686 -78 q 715 -99 710 -101 q 735 -86 728 -92 q 785 -18 767 -60 q 808 86 810 36 m 200 740 q 104 840 129 767 q 94 950 86 892 q 158 1103 107 1038 q 288 1189 211 1169 l 293 1190 q 363 1199 338 1201 q 450 1168 413 1194 q 518 1047 511 1128 q 433 797 531 907 q 281 729 374 729 q 261 731 271 729 q 200 740 226 731 m 332 1121 q 293 1083 307 1103 q 233 892 228 994 q 251 828 236 858 q 265 808 257 817 q 281 806 272 801 q 321 836 304 818 q 392 999 383 901 q 378 1085 394 1046 q 357 1119 369 1106 q 344 1128 349 1128 q 332 1121 340 1128 z "},"&":{"ha":1168,"x_min":-28,"x_max":1101,"o":"m 1071 549 q 1094 535 1088 546 q 1096 508 1100 525 q 1024 400 1078 446 q 857 315 956 342 q 786 301 831 308 l 785 301 q 770 299 775 300 q 767 293 765 297 q 772 265 769 276 q 778 196 782 233 q 754 75 774 129 q 736 32 746 51 q 486 -165 653 -115 q 353 -185 419 -185 l 351 -185 q 226 -162 286 -185 q 96 -81 146 -131 q 4 76 31 -14 q -8 283 -26 182 q 51 440 6 361 q 110 522 75 481 q 214 628 158 579 q 328 701 257 665 q 396 731 367 721 l 397 731 q 400 732 400 732 q 394 735 399 733 q 389 738 390 736 q 306 789 336 764 q 199 999 201 871 q 239 1167 197 1086 q 339 1306 281 1247 q 535 1411 422 1390 q 739 1378 640 1429 q 803 1332 781 1356 q 840 1149 875 1251 q 779 1025 819 1089 q 760 1003 774 1017 q 732 993 750 992 q 707 1025 704 996 q 711 1042 708 1032 l 715 1058 q 733 1118 728 1097 q 747 1197 746 1156 q 714 1297 749 1254 q 628 1346 685 1332 q 594 1343 617 1349 q 493 1282 540 1329 q 378 1094 414 1203 q 364 953 353 1024 q 457 808 381 858 q 558 760 497 783 q 592 746 578 751 q 614 728 607 739 q 611 696 626 710 q 592 685 604 688 q 563 676 574 679 q 335 554 435 650 q 239 447 279 500 q 163 301 190 382 q 146 138 138 229 q 197 -14 154 53 q 296 -103 235 -76 q 354 -111 324 -115 q 600 35 511 -94 q 651 172 644 100 l 651 176 q 656 236 656 217 q 660 260 656 244 q 663 272 661 268 q 663 276 663 275 q 658 276 661 276 q 643 272 653 275 q 478 175 550 246 q 467 163 475 171 q 450 146 456 151 q 396 139 425 124 q 385 169 376 151 q 401 197 393 186 q 508 292 447 258 q 653 346 576 328 q 742 363 710 358 q 906 418 826 374 q 976 481 949 443 q 1014 526 988 496 l 1019 532 q 1071 549 1040 556 z "},"'":{"ha":357,"x_min":68,"x_max":289,"o":"m 275 1278 q 287 1252 285 1268 q 285 1219 289 1236 q 264 1160 279 1188 q 229 1118 250 1135 q 156 1072 183 1085 q 104 1060 128 1060 q 101 1060 103 1060 q 78 1065 86 1060 q 69 1081 69 1071 q 78 1096 69 1090 q 89 1103 82 1100 q 149 1161 129 1121 q 150 1165 150 1164 q 151 1168 151 1168 l 151 1169 q 149 1169 150 1169 q 142 1172 146 1171 q 132 1174 136 1174 q 97 1214 104 1183 q 133 1299 83 1268 q 199 1314 158 1314 l 200 1314 q 275 1278 238 1317 z "},"(":{"ha":525,"x_min":68,"x_max":601,"o":"m 585 1375 q 598 1358 596 1368 q 593 1338 600 1349 q 572 1311 586 1326 q 451 1158 499 1229 q 299 814 347 999 q 267 668 278 733 q 253 524 256 599 q 278 208 246 358 q 367 -31 307 75 q 481 -164 411 -107 l 483 -167 q 501 -186 496 -178 q 496 -221 517 -207 q 454 -235 481 -233 q 443 -235 449 -235 q 357 -204 394 -235 q 264 -110 306 -162 q 168 36 206 -37 q 114 175 132 110 q 85 293 93 249 q 71 436 75 351 q 71 542 68 476 q 176 967 86 767 q 344 1236 246 1124 q 483 1358 410 1310 q 539 1381 511 1376 q 585 1375 564 1386 z "},")":{"ha":528,"x_min":-31,"x_max":460,"o":"m 458 633 q 456 567 458 589 l 454 549 q 422 354 439 418 q 278 24 372 171 q 185 -104 231 -49 q 97 -210 133 -164 q 31 -243 71 -243 q 4 -240 18 -243 q 0 -239 1 -239 q -26 -217 -21 -232 q -17 -185 -31 -201 q -8 -175 -14 -181 q 96 -40 46 -119 q 204 163 163 64 q 254 313 226 215 q 289 465 276 390 l 289 467 q 297 526 292 488 q 306 618 306 588 q 301 769 307 710 l 301 772 q 292 853 296 826 q 243 1042 282 928 q 158 1240 219 1111 l 154 1250 q 131 1303 146 1267 q 122 1324 125 1317 q 115 1351 115 1339 q 139 1386 115 1376 q 192 1390 164 1396 q 233 1365 219 1383 q 243 1354 236 1363 q 258 1333 254 1340 q 351 1174 318 1246 q 406 1029 374 1128 l 407 1026 q 454 739 449 896 q 456 718 456 731 q 457 663 458 681 q 458 633 457 653 z "},"*":{"ha":622,"x_min":68,"x_max":556,"o":"m 543 1243 q 553 1228 551 1238 q 549 1211 554 1219 q 535 1196 543 1203 q 496 1167 514 1178 q 414 1117 468 1151 l 394 1106 q 383 1097 388 1101 q 392 1088 386 1093 q 464 1022 439 1044 q 521 960 503 986 q 533 940 529 947 q 521 910 542 919 q 468 906 497 899 q 425 924 446 910 q 354 978 388 949 q 349 983 353 979 q 340 990 342 992 q 336 979 336 989 q 336 971 336 974 q 318 901 332 947 l 317 900 q 278 874 308 874 q 268 874 274 874 q 233 888 244 876 q 221 922 222 899 q 221 933 221 925 q 221 994 218 974 q 221 999 221 997 q 206 991 215 996 q 183 976 197 986 q 156 961 164 965 q 117 949 136 950 q 81 957 99 947 q 69 972 71 963 q 75 989 68 981 q 92 1004 81 994 q 182 1069 121 1028 l 185 1071 q 201 1082 190 1074 q 222 1096 215 1090 q 224 1098 224 1097 q 222 1100 224 1099 q 211 1111 219 1104 q 203 1119 206 1117 q 111 1206 161 1163 q 99 1219 103 1214 q 93 1239 90 1229 q 108 1254 96 1249 q 161 1256 133 1264 q 222 1225 188 1247 q 235 1218 226 1222 q 249 1208 244 1211 q 250 1208 249 1208 l 251 1219 q 260 1265 258 1250 q 272 1314 264 1285 q 336 1351 288 1361 q 346 1349 342 1350 q 363 1340 357 1344 q 372 1327 369 1335 q 372 1308 374 1319 q 367 1265 369 1294 q 365 1253 365 1254 l 365 1247 l 363 1229 q 357 1183 360 1199 q 378 1194 369 1190 q 474 1246 424 1228 q 503 1253 490 1251 q 543 1243 524 1256 z "},"+":{"ha":761,"x_min":68,"x_max":693,"o":"m 676 469 q 692 444 693 458 q 675 421 692 431 q 658 415 668 418 q 604 407 632 407 q 528 408 569 408 l 468 410 q 460 410 463 410 q 456 405 457 408 q 453 397 454 401 l 450 369 q 440 293 443 319 q 433 238 438 275 q 431 201 432 213 q 404 106 424 147 q 356 69 389 74 q 338 68 347 68 q 292 78 314 68 q 264 108 268 88 q 254 194 251 157 l 254 196 q 265 265 260 218 q 273 326 269 306 q 282 388 276 346 q 285 413 283 404 q 281 417 285 415 q 267 418 274 418 q 154 433 228 421 l 153 433 q 106 446 136 436 l 101 447 q 81 458 90 451 q 69 479 68 468 q 86 499 71 492 q 103 504 93 503 q 143 507 121 508 l 160 506 q 238 499 211 500 q 289 499 256 497 q 299 507 297 499 q 310 575 307 550 q 338 703 317 625 q 349 733 340 714 l 349 735 q 392 768 360 763 q 460 764 425 775 q 494 714 494 751 q 492 686 494 704 l 490 681 q 488 661 490 674 q 485 640 486 647 l 483 635 q 469 518 474 557 l 468 514 q 468 496 467 497 q 490 493 471 493 q 610 489 569 494 q 663 476 636 486 q 676 469 671 472 z "},",":{"ha":368,"x_min":68,"x_max":300,"o":"m 290 89 q 299 56 300 74 q 267 -25 297 6 q 143 -122 207 -83 q 111 -133 129 -131 q 103 -133 107 -133 q 76 -126 88 -133 q 69 -115 71 -122 q 72 -104 68 -110 q 82 -94 76 -101 l 85 -92 q 97 -79 89 -87 q 144 -29 129 -47 q 160 -10 150 -22 q 163 -6 160 -8 l 161 -6 q 143 -1 149 -3 q 110 19 122 4 q 96 58 94 36 q 119 117 97 92 q 174 150 142 143 q 238 133 213 157 q 251 125 242 131 q 290 89 274 114 z "},"-":{"ha":647,"x_min":63,"x_max":581,"o":"m 569 489 q 577 463 581 476 q 557 443 574 450 q 521 436 540 436 q 519 436 521 436 q 493 438 513 436 q 410 439 438 438 q 382 440 399 440 q 232 444 332 440 q 179 446 197 446 q 122 456 151 447 q 89 469 103 460 q 72 488 78 478 q 78 514 64 503 q 97 522 85 521 q 139 528 119 528 q 256 528 181 528 l 292 528 l 299 528 l 346 528 q 461 528 413 528 q 546 507 506 528 q 569 489 561 499 z "},".":{"ha":324,"x_min":60,"x_max":269,"o":"m 236 119 q 246 53 268 90 q 217 25 236 35 q 161 7 188 7 q 156 8 158 7 l 153 8 q 117 11 128 8 q 90 25 100 17 q 72 86 60 50 q 108 131 82 114 q 163 144 133 147 q 186 143 174 144 q 236 119 215 139 z "},"/":{"ha":818,"x_min":64,"x_max":750,"o":"m 731 1318 q 749 1289 750 1310 q 744 1264 749 1278 q 714 1168 735 1221 q 651 1013 694 1118 q 611 910 626 947 q 485 583 568 801 q 454 503 465 532 q 369 288 428 431 q 342 217 351 243 q 240 -22 286 78 l 239 -26 q 199 -126 210 -92 q 138 -171 183 -169 q 132 -172 136 -171 l 128 -172 q 88 -162 101 -169 q 71 -126 64 -151 q 74 -118 72 -124 q 76 -111 76 -112 q 193 201 110 -4 q 236 308 222 274 q 290 446 254 353 q 400 725 365 633 l 408 744 q 500 972 467 897 q 519 1017 507 988 q 615 1226 581 1158 q 656 1294 639 1272 q 694 1321 672 1317 q 731 1318 713 1325 z "},":":{"ha":404,"x_min":60,"x_max":342,"o":"m 207 274 q 238 251 219 269 q 258 221 256 233 q 257 156 269 185 q 211 114 244 128 q 169 106 192 106 q 146 108 158 106 q 96 125 115 113 q 72 190 60 150 q 122 261 86 233 q 207 274 158 288 m 319 644 q 332 593 340 622 q 289 529 321 556 q 246 513 274 515 q 233 513 239 513 q 185 524 207 513 q 158 556 165 533 q 174 639 144 599 q 250 672 201 675 q 261 671 254 672 q 267 671 265 671 q 319 644 297 667 z "},";":{"ha":350,"x_min":65,"x_max":282,"o":"m 226 233 q 264 165 268 215 l 263 164 q 256 139 260 157 q 239 88 247 104 q 201 47 226 61 q 118 21 157 21 q 88 26 101 21 q 69 50 72 33 q 89 78 65 74 q 111 78 99 81 q 122 83 117 76 q 129 97 128 92 q 128 103 132 100 q 121 106 125 104 q 113 110 115 108 q 75 151 89 122 q 75 190 67 169 q 105 231 83 215 q 151 244 126 246 q 200 240 168 244 l 210 239 q 226 233 217 238 m 125 522 q 99 586 88 544 q 122 636 107 617 q 217 669 157 682 q 228 664 224 668 q 249 650 235 658 q 260 644 256 647 q 281 606 281 632 q 264 549 282 575 q 215 515 246 524 q 179 510 197 510 q 163 511 171 510 q 125 522 142 513 z "},"<":{"ha":815,"x_min":68,"x_max":749,"o":"m 738 124 q 746 97 749 110 q 729 76 743 85 q 690 64 713 65 q 681 64 686 64 q 674 64 679 64 q 668 64 669 64 q 564 86 610 64 q 328 181 486 121 l 301 192 q 167 247 249 211 q 142 257 158 251 q 122 265 129 263 q 85 289 99 276 q 69 317 69 303 q 85 343 69 331 q 122 369 100 354 l 151 390 q 313 500 258 464 q 417 563 346 524 q 454 585 442 576 q 546 636 515 619 q 625 667 586 660 q 668 665 649 672 q 682 658 676 663 q 691 644 690 653 q 685 628 692 635 q 667 614 679 624 l 665 613 q 468 483 581 550 q 240 332 389 436 q 232 325 235 328 q 250 318 242 321 q 343 285 282 306 q 532 217 468 240 q 643 174 569 203 q 692 154 675 161 q 738 124 721 143 z "},"=":{"ha":764,"x_min":67,"x_max":696,"o":"m 685 500 q 694 479 694 490 q 682 458 693 468 q 656 447 671 450 q 619 443 638 443 q 601 444 610 443 q 583 446 596 444 q 533 451 550 450 q 433 458 494 453 q 365 467 411 461 l 293 474 q 185 486 222 482 q 135 497 163 489 q 103 514 114 503 q 96 534 94 524 q 108 551 97 544 q 146 563 122 561 q 203 561 179 564 q 285 557 231 560 q 346 553 325 554 q 390 550 361 553 q 414 547 407 549 q 594 532 500 540 q 652 521 631 529 q 685 500 674 513 m 621 261 q 651 243 640 254 q 660 222 661 233 q 649 203 660 211 q 614 190 635 193 q 576 189 596 189 q 574 189 575 189 q 521 190 551 189 q 460 194 500 192 q 394 199 417 197 q 339 201 376 200 q 269 206 293 204 q 217 210 251 206 q 193 211 200 211 l 186 211 l 186 213 l 174 214 q 129 218 144 217 q 89 232 107 221 q 69 260 67 243 q 93 281 72 275 q 158 288 118 288 q 314 285 247 286 q 379 281 336 283 q 427 278 411 279 q 476 276 443 278 q 532 274 513 275 l 538 274 q 621 261 593 271 z "},">":{"ha":838,"x_min":67,"x_max":769,"o":"m 756 474 q 767 453 767 464 q 758 431 768 442 q 743 418 753 425 q 706 396 719 403 q 578 318 663 371 l 556 304 q 394 200 501 269 l 383 193 q 265 106 324 153 q 157 57 219 67 q 138 56 147 56 q 104 60 121 56 q 88 67 94 63 q 70 85 74 74 q 75 111 67 97 q 106 147 89 136 q 135 168 115 154 q 200 215 178 200 q 575 440 374 335 q 578 442 576 440 q 582 443 581 443 q 568 449 578 446 q 560 450 563 450 q 478 475 533 460 q 343 517 388 501 q 156 594 246 553 q 107 622 124 610 q 88 638 94 631 q 80 660 78 649 q 96 679 82 672 q 146 688 122 692 q 181 678 169 683 q 271 643 210 665 q 318 626 301 632 l 326 622 q 499 560 440 579 q 647 513 549 544 q 718 489 693 497 l 724 488 q 739 482 735 485 q 756 474 749 478 z "},"?":{"ha":772,"x_min":65,"x_max":707,"o":"m 703 1154 q 647 938 707 1050 q 590 857 631 904 q 474 739 550 808 q 389 657 419 689 q 332 582 354 619 q 275 446 297 529 q 250 297 261 390 q 232 222 246 263 q 185 189 219 189 l 183 189 q 174 189 179 189 q 140 202 151 192 q 125 233 129 213 q 121 310 117 281 q 122 333 121 317 q 124 344 122 342 q 154 504 128 425 q 257 685 186 606 q 322 753 278 708 q 338 767 331 761 q 363 793 346 776 q 413 843 397 825 q 550 1086 521 956 q 551 1267 574 1189 q 526 1324 542 1299 q 443 1374 497 1369 q 331 1358 390 1379 q 161 1224 224 1322 q 146 1193 154 1214 l 143 1188 q 108 1165 133 1164 q 72 1194 79 1168 q 72 1224 68 1207 q 89 1263 78 1244 q 208 1376 129 1332 q 424 1432 308 1432 q 549 1408 488 1432 q 665 1304 625 1378 q 703 1154 699 1240 m 231 119 q 261 82 253 107 q 253 31 271 54 q 208 -1 235 7 q 160 -8 186 -8 q 156 -8 157 -8 l 154 -8 q 103 6 126 -6 q 79 24 89 13 q 71 64 65 43 q 94 113 79 94 q 188 146 129 158 q 207 135 201 143 q 226 121 213 128 l 231 119 z "},"@":{"ha":1200,"x_min":61,"x_max":1138,"o":"m 1115 544 q 1128 390 1136 460 q 1014 117 1108 232 q 910 40 968 63 q 786 42 851 19 q 714 117 735 60 q 699 186 701 147 q 697 201 697 192 q 689 192 692 196 q 615 115 657 149 q 474 64 553 65 q 394 79 432 63 q 313 174 332 107 q 303 258 301 208 q 324 388 303 321 q 365 481 342 442 q 514 610 421 572 q 631 642 579 636 q 765 631 704 650 q 835 589 813 614 q 847 579 838 585 q 851 576 850 578 q 868 550 868 568 l 868 546 q 868 522 869 531 q 854 428 864 492 l 849 396 q 849 393 849 394 q 847 389 847 390 q 840 321 846 367 q 831 233 832 263 q 836 144 829 190 q 847 107 839 122 q 860 103 851 99 q 911 143 888 118 q 1007 321 979 214 q 1000 564 1039 439 q 888 711 971 654 q 761 767 832 749 q 676 774 726 776 q 436 697 550 768 q 261 490 319 624 q 218 344 232 422 q 217 243 213 304 q 257 69 222 153 q 410 -111 301 -40 q 533 -160 463 -146 q 575 -158 547 -161 l 582 -157 q 739 -117 663 -147 l 750 -112 q 846 -71 815 -86 q 883 -68 865 -60 q 892 -77 890 -71 q 892 -90 894 -83 q 874 -110 888 -101 q 838 -131 851 -124 l 831 -135 q 744 -178 774 -164 q 571 -225 665 -214 q 538 -226 554 -226 q 436 -212 490 -226 q 219 -104 308 -179 q 83 128 114 -14 q 74 326 63 226 q 103 447 79 378 q 258 682 147 579 q 413 781 325 743 q 589 832 504 819 q 779 829 686 844 q 963 758 872 813 q 1032 701 1000 735 q 1115 544 1093 635 m 451 272 q 451 200 447 232 q 464 156 456 172 q 476 138 472 140 q 493 143 479 136 l 494 144 q 524 163 510 151 q 575 207 553 183 q 753 549 703 347 q 751 557 754 554 q 732 569 739 567 q 694 578 715 578 q 674 576 685 578 q 568 531 617 567 q 496 442 522 497 q 451 272 457 360 z "},"A":{"ha":1010,"x_min":64,"x_max":1208,"o":"m 1203 558 q 1204 543 1208 553 q 1186 510 1192 518 q 1054 283 1072 313 q 913 96 978 160 q 871 61 890 74 q 735 40 808 22 q 622 122 661 58 q 585 258 590 178 q 585 319 585 263 q 613 569 582 411 q 619 605 615 586 q 628 646 624 624 q 636 681 633 668 q 640 703 639 696 q 631 714 640 711 q 621 715 625 715 q 584 710 611 714 q 542 704 557 706 q 515 683 525 701 q 460 576 482 617 q 381 433 436 533 q 296 278 325 332 q 207 111 244 183 q 140 14 196 90 q 92 -4 124 -8 q 71 24 64 -1 q 97 113 88 93 q 317 547 206 339 q 371 649 371 647 q 382 671 378 658 q 381 678 383 675 q 374 682 379 682 q 336 681 346 682 q 250 676 310 676 q 217 683 231 676 q 203 692 208 686 q 199 701 199 694 q 203 711 199 707 q 214 717 210 717 q 242 722 233 722 q 385 739 279 724 q 424 747 419 743 q 444 781 428 750 q 624 1108 535 953 q 769 1363 718 1275 q 781 1378 778 1375 q 833 1417 799 1404 q 899 1421 867 1429 q 933 1383 928 1413 q 935 1314 939 1354 q 871 943 925 1196 q 847 842 869 936 q 846 835 847 840 q 844 829 844 831 q 846 813 842 818 q 860 810 850 808 q 866 811 863 811 q 873 812 869 811 q 879 814 876 813 q 990 825 965 824 q 1035 826 1006 826 q 1061 817 1049 826 q 1070 799 1071 808 q 1060 782 1069 789 q 1028 769 1050 774 q 936 753 989 760 q 887 747 919 751 q 839 742 854 743 q 817 721 821 739 q 814 715 815 719 q 813 710 813 711 q 791 622 806 678 q 765 519 776 565 q 744 431 754 472 q 722 267 731 357 q 739 135 718 210 q 763 97 746 114 q 788 81 776 83 q 817 88 799 79 q 871 126 846 101 q 1046 344 981 232 q 1146 511 1069 383 q 1171 549 1151 519 q 1185 561 1176 558 q 1203 558 1196 565 m 665 799 q 671 817 669 811 q 724 1024 714 985 q 742 1107 724 1028 q 738 1108 740 1107 q 710 1058 711 1060 q 611 868 669 981 q 568 783 588 822 q 568 774 565 778 q 576 769 571 769 q 649 781 613 772 q 665 799 661 785 z "},"B":{"ha":1204,"x_min":68,"x_max":1143,"o":"m 1128 619 q 1128 457 1142 536 q 1028 224 1103 321 q 708 11 906 63 q 538 -12 635 -8 q 440 -3 493 -14 q 275 58 335 22 q 189 142 226 88 q 158 245 158 186 q 192 357 157 304 q 194 361 194 361 q 235 456 225 390 q 245 526 238 476 q 257 603 253 576 q 262 655 258 621 q 267 697 265 689 q 279 817 269 719 q 296 967 289 915 q 339 1242 317 1133 q 346 1296 340 1254 q 343 1304 347 1301 q 335 1303 340 1307 q 293 1270 326 1296 q 242 1231 260 1244 q 158 1178 197 1196 q 103 1164 126 1163 q 74 1174 85 1165 q 69 1181 69 1176 q 72 1189 69 1186 q 90 1201 78 1193 q 346 1375 253 1294 q 374 1414 367 1393 q 428 1451 386 1450 q 465 1447 453 1451 q 489 1418 486 1439 q 490 1408 490 1411 q 489 1289 489 1299 q 472 1092 488 1267 q 468 1053 472 1089 q 497 1100 496 1099 q 724 1383 585 1256 q 849 1453 782 1439 q 938 1450 892 1463 q 1007 1393 986 1435 q 1036 1238 1046 1314 q 1017 1144 1029 1176 q 949 1028 999 1092 q 813 908 900 965 q 782 886 788 892 q 813 876 789 881 q 974 826 908 860 q 1128 619 1104 763 m 481 919 q 469 882 471 897 q 536 893 486 882 q 668 957 608 910 q 844 1208 796 1060 q 858 1371 865 1272 q 857 1379 858 1375 q 839 1390 853 1394 q 790 1363 818 1383 q 699 1276 747 1331 q 481 919 563 1122 m 933 464 q 938 540 939 525 q 935 563 936 549 q 933 583 933 578 q 897 707 925 660 q 813 789 867 764 q 719 822 767 811 q 597 824 650 838 q 497 813 546 810 q 463 813 465 813 q 443 794 444 813 q 436 728 438 753 q 414 525 433 679 q 409 490 413 515 q 404 453 406 465 q 415 433 401 439 q 425 431 418 433 q 445 424 432 428 q 467 416 458 419 q 488 410 475 413 q 510 406 500 407 q 524 396 522 406 q 513 382 524 388 q 489 375 503 375 q 446 376 464 374 q 410 383 429 381 q 393 383 397 385 q 383 369 389 381 q 375 354 379 363 q 366 335 371 346 q 358 319 361 325 q 283 276 336 275 q 267 278 278 276 q 256 279 257 279 q 238 267 240 281 q 261 161 231 201 q 372 75 308 100 q 460 49 411 60 q 558 46 507 38 q 846 222 740 71 q 933 464 919 328 z "},"C":{"ha":657,"x_min":64,"x_max":999,"o":"m 821 1072 q 907 1263 879 1154 q 913 1324 915 1292 q 908 1347 913 1338 q 888 1373 903 1365 q 854 1374 872 1381 q 815 1353 836 1367 q 668 1221 738 1303 q 522 997 594 1135 q 417 782 456 872 q 332 539 382 703 q 265 238 294 417 q 269 111 254 165 q 281 83 275 94 q 322 65 296 56 q 376 88 351 75 q 497 171 436 119 q 669 329 594 251 q 701 363 683 344 q 732 397 718 382 q 764 431 746 411 q 794 465 782 451 q 815 486 801 472 q 835 507 829 500 q 874 551 863 538 q 924 593 888 568 q 953 600 938 603 q 965 592 961 599 q 964 578 968 585 q 953 564 960 571 q 929 540 940 550 q 781 379 879 493 q 490 93 626 201 q 363 18 435 49 q 285 3 326 3 q 206 17 249 1 q 140 61 165 31 q 86 154 100 108 q 71 297 65 225 q 100 497 81 417 q 251 913 157 733 q 342 1076 306 1017 q 446 1217 386 1150 q 681 1394 544 1328 q 851 1438 761 1433 q 944 1418 904 1439 q 997 1336 997 1392 q 986 1251 999 1286 q 922 1108 957 1164 q 871 1039 908 1083 q 839 1014 857 1022 q 813 1010 825 1008 q 799 1038 786 1015 q 821 1072 807 1051 z "},"D":{"ha":1175,"x_min":67,"x_max":1110,"o":"m 1104 1003 q 1031 522 1110 771 q 876 246 983 375 q 733 111 811 169 q 467 0 615 25 q 322 4 390 -12 q 142 131 207 32 q 106 251 103 188 q 151 368 108 314 q 164 383 160 381 q 182 428 181 400 q 188 507 182 457 q 195 606 190 540 q 203 699 200 671 q 232 979 219 879 q 269 1232 246 1086 q 268 1244 271 1242 q 262 1245 265 1247 q 258 1242 258 1243 q 254 1239 257 1242 q 250 1235 251 1236 q 168 1168 215 1203 q 126 1144 147 1153 q 81 1142 103 1136 q 70 1151 72 1144 q 74 1165 68 1158 q 83 1174 78 1169 q 185 1261 182 1260 q 225 1300 199 1274 q 247 1324 232 1308 q 267 1346 261 1339 q 308 1397 300 1381 q 336 1419 317 1414 q 364 1424 356 1424 q 388 1422 378 1424 q 404 1416 397 1421 q 416 1404 411 1411 q 424 1388 421 1397 q 426 1365 426 1379 q 426 1336 428 1349 q 417 1199 424 1283 q 410 1111 414 1165 q 407 1076 408 1094 q 404 1040 406 1057 q 401 1006 403 1024 q 399 969 400 988 q 396 935 397 951 q 396 918 396 933 q 406 929 403 919 q 439 997 411 940 q 482 1082 467 1053 q 688 1335 560 1232 q 842 1392 757 1389 q 1026 1297 956 1396 q 1063 1224 1049 1265 q 1104 1003 1103 1113 m 878 783 q 906 1035 908 946 q 890 1217 907 1131 q 872 1283 883 1253 q 851 1319 864 1303 q 833 1334 842 1332 q 811 1332 825 1336 q 750 1300 774 1318 q 636 1192 686 1253 q 522 1008 582 1126 q 408 775 501 967 q 397 751 404 767 q 389 731 390 735 q 382 703 382 717 q 379 651 382 693 q 375 588 376 610 q 371 503 372 522 q 373 466 368 474 q 407 451 378 458 q 471 417 449 443 q 509 371 494 390 q 542 314 524 351 q 532 292 550 297 q 500 297 517 288 q 463 328 479 310 q 407 374 438 353 q 379 390 394 383 q 361 383 367 397 q 355 366 358 376 q 348 347 351 356 q 340 331 344 339 q 274 286 322 288 q 228 288 274 286 q 211 276 215 288 q 235 158 194 217 q 314 81 263 115 q 433 65 368 46 q 596 154 526 93 q 688 257 644 199 q 799 475 751 344 q 878 783 842 599 z "},"E":{"ha":853,"x_min":67,"x_max":1131,"o":"m 1086 581 q 1116 587 1103 589 q 1128 572 1129 585 q 1118 546 1126 558 q 1083 499 1090 507 q 1012 413 1057 469 q 954 342 967 356 q 639 35 792 144 q 538 -29 578 -10 q 288 -72 422 -83 q 174 -37 231 -68 q 101 30 126 -11 q 71 126 75 71 q 78 213 67 165 q 208 469 111 347 q 378 626 279 557 q 519 714 447 675 q 536 726 535 722 q 511 735 531 731 q 433 757 471 742 q 325 918 328 803 q 375 1110 322 1025 q 550 1272 435 1204 q 754 1346 649 1329 q 874 1349 826 1357 q 947 1317 919 1340 q 989 1210 996 1275 q 874 1004 976 1093 q 842 990 857 989 q 832 996 833 990 q 833 1004 831 1001 q 882 1086 856 1033 q 914 1179 907 1138 q 908 1240 918 1211 q 873 1290 899 1274 q 814 1301 847 1306 q 736 1281 778 1296 q 521 1110 596 1226 q 481 994 488 1058 q 488 893 475 935 q 522 832 500 854 q 593 799 553 800 q 689 799 632 799 q 750 799 707 799 q 792 792 771 800 q 814 779 806 788 q 814 743 836 761 q 790 729 810 739 q 769 718 788 728 q 742 703 750 708 q 563 583 610 619 q 349 342 431 481 q 274 140 293 249 q 278 56 265 97 q 285 35 281 42 q 353 -11 307 -8 q 481 18 414 -12 q 619 104 546 49 q 771 232 710 172 q 872 339 808 268 q 1032 531 947 424 q 1086 581 1056 561 z "},"F":{"ha":513,"x_min":60,"x_max":1060,"o":"m 1035 1436 q 1040 1406 1060 1425 q 999 1376 1026 1390 q 924 1340 947 1351 q 800 1283 832 1297 q 688 1250 749 1261 q 635 1246 664 1247 q 603 1246 624 1246 q 572 1246 582 1246 q 474 1263 522 1246 q 456 1268 460 1268 q 439 1257 442 1272 q 429 1193 432 1214 q 421 1104 425 1154 q 411 957 417 1042 q 410 907 410 933 q 411 897 410 900 q 416 892 413 893 q 426 893 419 892 q 496 903 460 897 q 581 914 560 914 q 613 919 589 914 q 657 918 633 924 q 675 908 668 915 q 672 867 701 886 q 651 857 665 861 q 581 839 622 844 q 511 830 558 836 q 439 819 464 824 q 409 811 414 817 q 403 779 404 806 q 399 665 400 739 q 396 563 397 590 q 393 501 394 546 q 390 433 392 457 q 340 151 381 261 q 267 21 318 93 q 206 -18 243 -12 q 163 -11 183 -21 q 154 14 146 -3 q 185 121 171 49 q 200 333 203 221 q 197 493 200 351 q 194 710 193 635 q 194 739 194 717 q 196 768 194 761 q 172 804 196 799 q 163 810 169 806 q 150 828 150 818 q 161 846 150 838 q 178 854 171 851 q 200 883 200 858 q 204 975 199 906 q 264 1261 218 1136 q 267 1272 265 1264 q 265 1278 267 1272 q 232 1256 233 1257 q 140 1206 194 1231 q 89 1199 113 1192 q 78 1203 82 1201 q 75 1228 61 1213 q 103 1249 81 1235 q 315 1390 250 1343 q 361 1432 339 1407 q 433 1457 388 1461 q 453 1451 443 1456 q 472 1419 475 1443 q 469 1410 471 1414 q 485 1357 460 1383 q 550 1314 522 1321 q 571 1310 567 1310 q 706 1324 647 1303 q 897 1408 804 1358 q 992 1442 946 1435 q 1035 1436 1014 1446 z "},"G":{"ha":1006,"x_min":65,"x_max":939,"o":"m 779 1011 q 835 1138 818 1076 q 785 1318 863 1242 q 726 1360 758 1344 q 668 1364 699 1374 q 581 1308 625 1349 q 440 1121 507 1243 q 311 739 349 953 q 279 513 289 613 q 278 314 271 422 q 303 224 282 268 q 325 186 308 211 q 357 176 336 168 q 393 193 379 185 q 474 254 439 219 q 703 579 625 400 q 735 658 714 606 q 736 674 736 664 q 729 681 736 681 q 711 675 718 678 q 615 631 675 658 q 467 569 528 590 q 407 561 433 558 q 381 567 392 563 q 367 583 368 574 q 376 599 365 592 q 403 614 386 606 q 529 676 503 664 q 692 749 643 729 q 840 796 761 776 q 876 794 863 800 q 893 785 888 790 q 894 751 913 767 q 876 704 878 739 q 867 539 875 671 q 867 532 867 536 q 866 524 867 528 q 865 517 865 521 q 865 509 865 513 q 864 501 864 506 q 851 335 863 444 q 851 318 851 325 q 849 263 850 299 q 847 206 847 228 q 844 152 846 183 q 842 96 843 121 q 835 32 842 60 q 813 -7 828 4 q 769 -18 799 -18 q 753 -18 760 -19 q 719 -6 731 -15 q 703 25 708 3 q 699 68 699 43 q 701 304 700 264 q 703 333 701 310 q 703 372 704 357 q 700 403 703 388 q 656 340 658 343 q 519 182 597 251 q 375 107 451 122 q 268 106 324 96 q 165 165 210 114 q 86 315 106 231 q 71 425 75 367 q 83 650 65 503 q 133 890 99 779 q 342 1271 204 1119 q 539 1410 432 1369 q 760 1426 646 1451 q 839 1392 803 1417 q 901 1327 875 1367 q 935 1238 928 1288 q 925 1161 939 1207 q 828 990 899 1071 q 810 974 819 981 q 775 969 794 963 q 765 988 760 975 q 779 1011 769 996 z "},"H":{"ha":1131,"x_min":68,"x_max":1319,"o":"m 1318 515 q 1313 489 1319 507 q 1204 265 1253 343 q 1172 211 1193 246 q 1143 163 1151 176 q 1071 58 1117 117 q 1050 38 1067 53 q 952 -15 1010 -7 q 843 6 894 -22 q 738 129 764 44 q 721 236 721 185 q 725 436 719 390 q 726 460 726 440 q 732 575 728 535 q 729 587 733 583 q 715 589 725 590 q 700 586 707 588 q 542 547 585 557 q 522 538 526 543 q 517 518 518 533 q 490 269 510 401 q 439 74 474 160 q 374 -21 417 19 q 293 -89 332 -61 q 215 -126 254 -117 q 160 -131 192 -133 q 138 -122 147 -129 q 133 -114 133 -119 q 136 -104 133 -108 q 147 -97 143 -99 q 159 -91 153 -94 q 172 -83 165 -87 q 181 -74 178 -78 q 192 -65 185 -71 q 201 -56 199 -58 q 210 -44 203 -53 q 219 -35 218 -36 q 239 4 231 -22 q 281 185 264 75 q 303 379 299 303 q 307 434 304 399 q 310 482 310 469 q 308 497 311 493 q 294 501 304 500 q 284 501 290 501 q 274 501 278 501 q 242 511 254 504 q 232 526 231 517 q 243 540 232 538 q 292 554 275 551 q 318 585 314 560 q 319 604 319 604 q 353 921 325 700 q 382 1118 368 1047 q 381 1132 385 1128 q 354 1113 357 1115 q 331 1096 342 1104 q 226 1025 251 1042 q 165 990 199 1006 q 94 986 128 975 q 79 993 85 989 q 69 1006 71 999 q 75 1021 68 1014 q 97 1038 83 1029 q 151 1071 108 1044 q 218 1113 194 1097 q 403 1253 339 1190 q 439 1292 424 1272 q 485 1326 456 1318 q 544 1322 515 1335 q 568 1286 568 1313 q 568 1276 568 1278 q 565 1244 565 1261 q 563 1206 564 1226 q 561 1174 561 1186 q 557 1111 557 1122 q 544 875 556 1003 q 539 810 542 846 q 533 735 536 775 q 529 671 531 694 q 526 649 528 663 q 525 628 525 635 q 538 617 524 614 q 553 619 546 617 q 710 663 575 625 q 713 663 711 663 q 717 664 715 664 q 731 669 726 667 q 737 677 735 672 q 739 692 739 682 q 742 717 740 703 q 744 748 743 732 q 746 774 744 764 q 821 1206 764 996 q 836 1257 826 1226 q 884 1303 850 1293 q 946 1299 918 1313 q 968 1275 963 1292 q 974 1258 972 1264 q 979 1157 981 1172 q 978 1148 979 1156 q 976 1136 976 1140 q 972 1053 976 1097 q 961 956 968 1008 q 951 872 954 903 q 940 736 946 824 q 944 722 940 725 q 960 717 947 718 q 969 717 961 717 q 979 717 978 717 q 1006 711 993 714 q 1025 692 1025 706 q 1008 669 1026 678 q 983 658 1000 664 q 949 647 964 651 q 929 619 931 640 q 914 458 919 493 q 909 374 911 429 q 904 292 907 318 q 903 153 897 228 q 933 60 907 96 q 956 54 943 46 q 1022 118 988 75 q 1075 188 1049 150 q 1206 388 1175 328 q 1217 404 1211 397 q 1286 510 1254 454 q 1299 525 1292 517 q 1311 525 1304 529 q 1318 515 1318 522 z "},"I":{"ha":554,"x_min":68,"x_max":485,"o":"m 483 1315 q 485 1315 485 1315 q 472 1118 481 1250 q 472 1115 472 1118 q 471 1108 472 1111 q 470 1071 471 1092 q 469 1031 469 1050 q 467 993 468 1013 q 466 953 467 974 q 464 915 465 932 q 453 696 458 758 q 453 690 453 693 q 446 503 446 514 q 422 269 438 360 q 392 160 413 214 q 347 71 375 114 q 313 32 331 46 q 219 -26 271 -1 q 156 -36 193 -40 q 139 -32 147 -36 q 124 -10 124 -26 q 136 13 124 6 q 144 17 140 15 q 179 46 163 22 q 253 243 239 131 q 265 410 264 332 q 272 613 268 507 q 285 831 278 724 q 303 1056 294 968 q 335 1263 313 1161 q 337 1269 335 1264 q 340 1278 339 1275 q 339 1284 340 1281 q 333 1290 338 1288 q 327 1292 331 1293 q 322 1289 324 1290 q 315 1284 319 1288 q 310 1279 311 1281 q 260 1248 299 1272 q 200 1211 221 1224 q 153 1188 183 1201 q 96 1179 128 1176 q 78 1185 86 1181 q 70 1195 71 1188 q 75 1207 69 1203 q 86 1213 81 1211 q 181 1265 121 1228 q 328 1367 290 1335 q 378 1411 363 1396 q 458 1425 406 1439 q 482 1399 478 1421 q 483 1376 483 1389 q 483 1315 483 1369 z "},"J":{"ha":825,"x_min":63,"x_max":757,"o":"m 756 1274 q 753 1061 756 1263 q 751 926 751 1003 q 751 775 751 850 q 749 642 750 700 q 738 401 746 467 q 593 46 713 193 q 489 -58 539 -21 q 307 -137 406 -121 q 197 -133 249 -147 q 88 -33 118 -114 q 71 44 74 1 q 106 236 63 143 q 265 439 158 349 q 407 536 325 490 q 429 549 417 542 q 452 562 442 556 q 474 574 463 568 q 497 588 485 581 q 519 600 508 594 q 539 632 539 611 q 539 688 539 633 q 550 894 540 740 q 597 1274 560 1044 q 597 1286 597 1274 q 476 1206 535 1240 q 368 1153 422 1175 q 304 1143 335 1140 q 286 1146 293 1143 q 265 1161 268 1150 q 265 1168 265 1167 q 266 1173 264 1169 q 269 1177 268 1176 q 273 1181 269 1178 q 278 1185 276 1183 q 343 1214 310 1215 q 368 1222 351 1213 q 599 1382 515 1304 q 639 1425 615 1397 q 682 1448 653 1443 q 731 1440 711 1453 q 744 1421 742 1433 q 750 1390 750 1399 q 756 1274 756 1303 m 533 485 q 533 524 533 518 q 533 539 533 531 q 521 546 532 550 q 511 540 515 543 q 389 461 400 468 q 189 226 254 367 q 160 56 150 144 q 186 -29 164 10 q 228 -74 201 -56 q 260 -79 243 -85 q 318 -50 294 -65 q 390 21 356 -22 q 514 288 485 136 q 533 485 526 349 z "},"K":{"ha":1156,"x_min":68,"x_max":1264,"o":"m 1256 260 q 1258 243 1263 254 q 1250 226 1254 232 q 1128 64 1186 121 q 954 -12 1057 -7 q 918 -11 939 -14 q 718 72 811 1 q 592 211 646 126 q 522 333 578 232 q 508 358 522 335 q 486 233 489 242 q 443 103 474 163 q 385 36 421 60 q 285 -25 328 -4 q 215 -39 249 -42 q 189 -32 200 -37 q 177 -17 179 -26 q 182 1 175 -7 q 194 11 186 7 q 288 129 263 50 q 318 281 308 203 q 335 483 326 346 q 336 600 335 489 q 328 629 336 619 q 326 658 313 644 q 338 688 336 669 q 340 712 338 692 q 342 742 342 732 q 353 921 342 819 q 361 998 354 932 q 372 1099 368 1064 q 394 1236 374 1103 q 397 1257 396 1247 q 394 1262 397 1260 q 389 1263 392 1264 q 357 1242 368 1249 q 190 1144 283 1189 q 129 1125 157 1128 q 81 1132 103 1121 q 70 1147 71 1138 q 78 1161 69 1156 q 97 1171 89 1168 q 161 1201 113 1176 q 381 1340 239 1242 q 450 1406 428 1374 q 488 1429 461 1424 q 551 1426 522 1438 q 578 1392 576 1417 q 578 1333 579 1356 q 573 1273 576 1313 q 568 1217 569 1233 q 564 1154 567 1196 q 560 1090 561 1113 q 555 1027 558 1068 q 550 971 551 986 q 544 885 546 919 q 536 725 540 825 q 536 710 535 718 q 544 706 538 703 q 557 713 551 708 q 636 776 601 742 q 806 981 728 867 q 963 1228 849 1044 q 1026 1319 994 1279 q 1104 1344 1054 1354 q 1131 1310 1132 1340 q 1119 1268 1129 1293 q 1053 1122 1086 1183 q 1031 1085 1044 1110 q 1011 1047 1017 1060 q 869 853 958 954 q 753 739 811 786 q 554 628 663 667 q 530 612 532 619 q 543 586 528 604 q 661 407 610 506 q 722 285 669 392 q 783 178 751 228 q 875 79 818 124 q 928 49 900 60 q 992 49 960 38 q 1051 81 1019 58 q 1193 213 1122 132 q 1226 250 1207 229 q 1239 260 1232 256 q 1256 260 1247 265 z "},"L":{"ha":664,"x_min":68,"x_max":969,"o":"m 950 96 q 950 67 968 81 q 921 56 938 58 q 829 53 864 47 q 786 54 817 54 q 692 54 761 54 q 586 54 624 54 q 456 60 499 56 q 410 61 439 61 q 364 61 382 61 q 325 46 342 63 q 236 1 292 10 q 160 10 194 -4 q 126 43 129 21 q 151 83 125 63 q 190 102 168 96 q 217 132 211 108 q 238 247 235 204 q 247 349 239 254 q 249 364 249 361 q 256 536 256 510 q 267 706 258 613 q 271 753 268 722 q 276 810 274 785 q 281 858 278 836 q 365 1275 307 1093 q 368 1281 365 1275 q 370 1288 371 1288 q 368 1296 369 1289 q 340 1279 363 1294 q 313 1260 328 1271 q 282 1238 297 1249 q 254 1218 267 1226 q 139 1151 210 1188 q 89 1142 114 1139 q 75 1147 83 1143 q 70 1154 71 1149 q 72 1163 69 1160 q 83 1174 78 1169 q 117 1196 106 1189 q 340 1349 175 1229 q 432 1426 381 1376 q 501 1440 460 1453 q 524 1408 525 1432 q 521 1383 524 1400 q 472 1129 476 1165 q 450 958 460 1042 q 433 799 442 893 q 426 694 428 736 q 422 592 425 663 q 417 485 418 522 q 406 269 413 326 q 388 167 400 219 q 385 158 386 164 q 382 149 383 151 q 393 132 379 133 q 399 132 396 132 q 404 132 401 132 q 408 132 407 132 q 472 128 436 129 q 543 126 507 128 q 606 124 579 125 q 838 119 628 122 q 922 108 882 118 q 950 96 940 104 z "},"M":{"ha":1708,"x_min":68,"x_max":1901,"o":"m 1894 526 q 1894 503 1901 519 q 1840 376 1879 468 q 1718 126 1779 232 q 1651 28 1689 76 q 1588 -33 1622 -10 q 1425 -47 1511 -83 q 1365 7 1390 -33 q 1331 96 1340 50 q 1304 279 1313 190 q 1300 535 1296 378 q 1326 879 1303 722 q 1328 919 1331 907 q 1315 911 1321 922 q 1264 800 1279 833 q 1220 703 1246 761 q 1172 592 1194 644 q 1128 494 1149 539 q 1047 264 1082 392 q 1035 172 1036 228 q 1028 83 1033 128 q 999 0 1026 60 q 965 -29 990 -19 q 857 -29 911 -50 q 821 6 831 -19 q 801 100 800 63 q 807 338 803 211 q 822 631 815 543 q 826 685 824 647 q 829 740 828 722 q 857 961 838 843 q 858 999 861 986 q 833 946 849 982 q 708 643 714 654 q 547 261 643 488 q 529 174 531 221 q 519 60 528 161 q 469 -1 517 13 q 363 0 417 -17 q 319 54 322 13 q 311 161 311 136 q 313 576 310 429 q 324 769 313 600 q 332 874 329 854 q 353 1031 342 972 q 354 1053 354 1039 q 350 1059 354 1057 q 343 1060 346 1061 q 324 1043 332 1051 q 224 971 279 1004 q 135 936 178 942 q 81 943 106 932 q 69 957 71 947 q 79 971 68 965 q 368 1218 222 1047 q 415 1300 406 1261 q 439 1358 418 1308 q 522 1410 461 1407 q 569 1401 543 1411 q 597 1369 593 1393 q 600 1336 601 1353 q 594 1247 599 1308 q 588 1150 590 1185 q 578 1029 585 1118 q 568 892 571 940 q 563 793 565 857 q 558 718 560 729 q 553 604 557 681 q 546 488 549 528 q 547 456 544 464 q 567 494 565 492 q 715 829 589 547 q 753 915 729 858 q 790 1000 778 972 q 904 1249 832 1093 q 938 1332 929 1304 q 953 1363 943 1354 q 986 1374 964 1372 q 1056 1336 1039 1378 q 1063 1308 1061 1322 q 1071 1215 1071 1231 q 1072 1174 1071 1197 q 1075 1131 1074 1150 q 1077 1088 1076 1111 q 1078 1046 1078 1065 q 1065 824 1072 890 q 1065 808 1065 815 q 1056 597 1056 606 q 1054 571 1056 588 q 1051 549 1053 554 q 1049 497 1051 544 q 1052 497 1050 497 q 1056 496 1054 496 q 1103 608 1100 603 q 1251 936 1197 828 q 1349 1128 1329 1090 q 1403 1265 1383 1193 q 1424 1325 1407 1279 q 1468 1361 1435 1354 q 1504 1364 1492 1365 q 1549 1345 1533 1360 q 1568 1301 1564 1331 q 1575 1217 1574 1260 q 1576 1057 1575 1207 q 1564 761 1578 957 q 1563 746 1563 751 q 1553 517 1554 532 q 1535 261 1539 304 q 1532 65 1528 196 q 1538 51 1533 54 q 1554 58 1544 49 q 1626 143 1592 96 q 1713 276 1661 192 q 1748 337 1729 304 q 1789 408 1767 369 q 1825 468 1811 446 q 1844 500 1838 490 q 1865 522 1854 513 q 1894 526 1883 539 z "},"N":{"ha":1185,"x_min":67,"x_max":1118,"o":"m 1085 1304 q 1112 1199 1106 1263 q 1115 1093 1118 1136 q 1101 969 1111 1050 q 1089 867 1092 888 q 1033 365 1065 615 q 1029 319 1032 354 q 1024 253 1026 285 q 1015 182 1021 222 q 999 110 1010 142 q 974 51 989 78 q 936 12 960 24 q 883 6 913 0 q 832 61 851 13 q 813 150 813 110 q 818 364 811 263 q 835 582 822 435 q 865 839 838 606 q 883 992 876 935 q 897 1094 889 1026 q 910 1194 906 1163 q 914 1233 910 1196 q 899 1225 904 1235 q 835 1114 844 1132 q 694 842 726 913 q 593 624 656 760 q 567 565 582 600 q 537 497 551 529 q 510 438 522 464 q 490 354 493 403 q 478 168 489 328 q 449 117 475 138 q 326 85 401 81 q 285 94 307 86 q 243 126 258 104 q 232 175 228 147 q 238 277 236 210 q 243 375 239 344 q 249 466 246 407 q 251 533 251 525 q 258 633 254 568 q 265 726 263 697 q 270 794 267 758 q 278 866 274 831 q 286 933 282 901 q 295 1003 290 965 q 304 1072 300 1042 q 308 1103 306 1086 q 313 1134 311 1121 q 319 1165 315 1147 q 324 1196 322 1183 q 326 1202 325 1197 q 327 1210 328 1207 q 324 1217 326 1214 q 294 1199 319 1215 q 169 1122 221 1146 q 103 1110 138 1107 q 86 1113 92 1110 q 70 1125 72 1115 q 79 1143 68 1135 q 103 1158 88 1150 q 342 1347 222 1232 q 379 1390 364 1369 q 383 1397 379 1392 q 389 1406 388 1403 q 456 1431 401 1429 q 525 1411 511 1432 q 536 1389 535 1399 q 542 1354 540 1363 q 538 1254 543 1296 q 533 1188 536 1231 q 529 1125 531 1144 q 524 1037 526 1094 q 519 964 521 979 q 517 934 518 950 q 515 903 517 918 q 513 874 514 888 q 510 843 511 860 q 508 814 508 826 q 507 789 507 800 q 514 715 507 751 q 531 679 521 679 q 542 690 536 678 q 559 733 549 703 q 579 786 569 764 q 681 989 614 867 q 818 1236 754 1125 q 889 1335 853 1297 q 975 1372 924 1372 q 1039 1356 1013 1372 q 1085 1304 1067 1339 z "},"O":{"ha":951,"x_min":54,"x_max":892,"o":"m 867 1079 q 876 833 892 963 q 778 401 847 596 q 708 235 744 306 q 603 94 668 156 q 356 17 504 3 q 349 17 353 17 q 344 18 346 18 q 139 190 197 39 q 111 342 115 253 q 111 418 111 347 q 133 658 110 549 q 126 697 138 678 q 74 994 56 832 q 149 1249 88 1131 q 265 1386 189 1328 q 432 1444 338 1442 q 697 1357 588 1449 q 867 1079 832 1246 m 768 794 q 775 903 776 865 q 763 1039 771 993 q 619 1306 729 1199 q 489 1382 561 1363 q 372 1354 426 1400 q 346 1329 357 1342 q 271 1207 296 1274 q 222 885 208 1047 q 235 814 224 856 q 260 792 239 793 q 288 788 274 792 q 321 770 311 782 q 331 735 331 758 q 331 683 331 718 q 335 653 329 660 q 369 642 342 646 q 388 642 376 640 q 442 649 429 646 q 564 688 524 663 q 581 696 572 693 q 601 697 592 699 q 614 689 611 694 q 600 661 617 676 q 539 629 575 642 q 356 592 443 597 q 338 590 342 592 q 325 579 328 589 q 322 561 324 572 q 308 344 319 514 l 310 344 q 310 308 310 311 q 332 169 314 229 q 367 107 343 135 q 438 89 396 72 q 500 125 475 103 q 592 228 558 178 q 719 521 671 347 q 768 794 751 636 z "},"P":{"ha":697,"x_min":65,"x_max":1032,"o":"m 1006 1196 q 1024 974 1032 1103 q 1006 888 1022 943 q 815 614 956 717 q 626 551 731 553 q 414 635 496 550 q 367 681 401 649 q 350 676 357 689 q 343 658 346 667 q 318 573 335 631 q 293 486 301 515 q 288 438 288 468 q 287 336 288 421 q 286 206 286 251 q 281 125 286 182 q 272 93 278 108 q 242 32 260 65 q 199 -8 226 3 q 140 -7 171 -18 q 114 19 118 0 q 112 31 114 21 q 108 44 110 40 q 97 75 100 69 q 78 147 83 97 q 76 160 76 149 q 71 622 67 408 q 73 680 71 650 q 77 746 75 710 q 81 801 79 782 q 88 910 85 865 q 117 1129 96 1007 q 135 1232 126 1188 q 147 1272 139 1253 q 182 1304 156 1296 q 249 1303 214 1314 q 285 1268 276 1294 q 294 1217 293 1239 q 294 1149 294 1158 q 292 892 293 928 q 288 715 288 790 q 288 696 288 714 l 293 696 q 303 722 301 721 q 301 757 310 743 q 296 772 299 763 q 304 789 293 786 q 314 792 310 790 q 322 798 318 794 q 327 803 325 801 q 332 811 329 806 q 335 819 335 817 q 339 828 336 821 q 342 838 342 836 q 478 1147 399 992 q 579 1322 535 1261 q 658 1404 618 1374 q 804 1440 731 1453 q 924 1369 878 1426 q 1006 1196 974 1304 m 769 810 q 821 1085 826 956 q 806 1275 822 1154 q 782 1363 799 1322 q 758 1393 771 1389 q 722 1383 746 1397 q 644 1319 675 1357 q 550 1175 593 1258 q 453 958 510 1100 q 388 785 433 910 q 383 762 381 768 q 399 746 385 756 q 489 676 450 706 q 578 629 522 653 q 638 636 608 617 q 682 674 665 656 q 769 810 740 736 z "},"Q":{"ha":908,"x_min":58,"x_max":847,"o":"m 835 42 q 829 13 846 25 q 806 4 818 4 q 740 7 764 0 q 639 42 678 24 q 595 62 626 47 q 549 85 564 76 q 506 83 524 96 q 417 53 471 60 q 235 115 303 39 q 192 176 207 146 q 126 403 138 283 q 121 475 121 457 q 151 724 121 604 q 158 765 160 756 q 133 797 156 774 q 74 929 88 846 q 92 1129 60 1019 q 175 1304 121 1228 q 364 1436 253 1410 q 590 1426 488 1467 q 763 1274 701 1383 q 821 1092 801 1201 q 826 953 826 1051 q 760 526 832 760 q 690 338 724 410 q 614 197 656 261 q 603 174 601 179 q 624 160 604 168 q 694 127 646 150 q 769 93 743 104 q 826 51 790 83 q 835 42 831 47 m 428 128 q 434 135 433 131 q 429 142 435 139 q 389 163 417 149 q 383 163 389 163 q 381 157 381 157 q 401 122 385 136 q 414 121 407 118 q 428 128 422 124 m 547 251 q 615 379 589 314 q 714 707 676 524 q 733 904 733 801 q 718 1092 733 994 q 675 1239 707 1171 q 535 1382 629 1336 q 463 1397 499 1400 q 347 1349 396 1392 q 301 1297 319 1324 q 215 1106 242 1213 q 201 969 199 1036 q 214 894 203 929 q 219 897 219 897 q 225 901 222 899 q 361 924 276 950 q 390 883 390 915 q 388 844 390 863 q 384 826 386 836 q 381 808 382 817 q 377 790 379 800 q 374 771 375 779 q 376 752 372 758 q 393 744 379 746 q 403 743 396 744 q 599 765 519 742 q 618 768 608 768 q 640 758 639 771 q 628 742 640 749 q 599 728 608 731 q 544 715 567 718 q 396 701 457 701 q 373 700 383 701 q 360 688 363 699 q 356 668 357 682 q 339 382 331 514 q 351 267 340 360 q 353 256 351 260 q 359 250 356 251 q 369 247 363 249 q 464 222 406 244 q 473 219 465 222 q 486 215 481 217 q 512 210 506 208 q 532 229 518 213 q 547 251 540 242 z "},"R":{"ha":969,"x_min":63,"x_max":1072,"o":"m 1068 363 q 1068 350 1072 358 q 1057 326 1061 333 q 990 215 1008 244 q 921 138 964 172 q 788 85 865 90 q 538 132 654 74 q 403 243 458 172 q 314 401 357 304 q 303 426 307 418 q 297 429 300 429 q 292 426 293 429 q 279 343 276 375 q 290 154 290 232 q 260 40 290 107 q 206 3 244 10 q 150 13 168 -3 q 135 33 136 19 q 132 57 132 44 q 124 103 132 83 q 107 168 113 129 q 92 324 100 238 q 79 465 90 332 q 79 469 79 465 q 79 475 79 474 q 72 929 64 707 q 97 1178 79 1088 q 118 1253 107 1225 q 139 1296 128 1275 q 228 1332 164 1346 q 257 1292 257 1325 q 254 1186 257 1267 q 251 1161 253 1179 q 250 1133 250 1143 q 250 794 246 936 q 258 649 250 786 l 263 649 q 300 775 299 771 q 410 1085 356 963 q 504 1268 460 1194 q 578 1361 535 1318 q 746 1429 650 1431 q 807 1424 783 1429 q 976 1301 917 1404 q 1028 1163 1010 1242 q 1040 1051 1039 1111 q 1028 938 1043 999 q 715 585 967 683 q 479 553 607 542 q 463 554 465 554 q 457 546 456 553 q 463 531 460 539 q 492 467 467 521 q 526 393 517 414 q 556 334 536 372 q 593 267 575 296 q 625 218 611 236 q 750 138 671 156 q 788 138 768 133 q 886 192 842 149 q 978 292 935 238 q 1014 338 1000 321 q 1035 360 1021 346 q 1053 368 1043 367 q 1068 363 1063 369 m 399 642 q 497 617 436 625 q 547 619 521 614 q 647 667 601 632 q 769 822 725 724 q 818 1069 822 938 q 808 1197 818 1140 q 778 1311 797 1271 q 753 1351 767 1338 q 710 1361 735 1372 q 678 1343 694 1354 q 608 1279 643 1319 q 511 1117 561 1222 q 360 696 432 944 q 353 665 350 674 q 383 647 357 656 q 399 642 386 647 z "},"S":{"ha":733,"x_min":44,"x_max":743,"o":"m 717 1307 q 722 1140 743 1224 q 714 1117 719 1128 q 682 1096 706 1097 q 643 1126 647 1094 q 640 1157 640 1153 q 632 1226 640 1168 q 593 1333 625 1276 q 547 1383 579 1357 q 501 1400 528 1401 q 463 1396 472 1399 q 328 1317 383 1378 q 264 1168 272 1256 q 328 944 254 1049 q 468 781 372 883 q 611 603 557 688 q 683 376 676 500 q 639 193 689 283 q 447 22 569 69 q 331 3 393 1 q 236 17 278 0 q 126 154 142 53 q 217 371 108 283 q 304 428 258 403 q 415 483 314 432 q 438 494 436 493 q 450 505 449 500 q 446 521 451 510 q 385 610 421 565 q 246 754 357 642 q 158 854 193 808 q 113 919 131 890 q 82 1157 46 1032 q 333 1426 139 1349 q 513 1457 417 1460 q 717 1307 672 1454 m 483 428 q 472 449 478 446 q 450 442 467 451 q 410 419 436 435 q 304 357 319 367 q 206 183 214 296 q 217 118 203 151 q 260 67 228 88 q 326 50 292 46 q 383 72 356 53 q 451 142 425 100 q 499 319 501 221 q 483 428 500 364 z "},"T":{"ha":882,"x_min":65,"x_max":1310,"o":"m 1299 1249 q 1301 1194 1308 1221 q 1272 1126 1289 1157 q 1239 1086 1263 1106 q 1176 1079 1214 1064 q 1160 1103 1161 1086 q 1160 1122 1158 1113 q 1163 1161 1161 1157 q 1153 1233 1171 1196 q 1103 1295 1136 1269 q 1032 1324 1069 1321 q 961 1328 986 1328 q 925 1328 944 1328 q 890 1328 906 1328 q 853 1328 874 1328 q 817 1326 832 1328 q 781 1325 788 1326 q 768 1310 768 1321 q 769 1263 769 1276 q 768 1168 772 1229 q 721 485 729 579 q 696 181 700 215 q 682 54 693 139 q 658 -12 679 28 q 631 -35 650 -28 q 567 -28 599 -43 q 543 3 551 -21 q 529 97 529 46 q 536 325 529 103 q 540 422 538 347 q 544 538 543 497 q 552 708 544 597 q 560 846 560 819 q 563 889 561 847 q 575 1064 574 1051 q 594 1282 576 1096 q 593 1310 597 1306 q 567 1313 589 1314 q 432 1306 488 1310 q 290 1303 347 1300 q 171 1321 219 1307 q 131 1338 149 1328 q 81 1385 97 1354 q 71 1451 65 1415 q 144 1579 82 1529 q 217 1603 174 1603 q 258 1593 239 1604 q 261 1565 279 1581 q 211 1482 232 1539 q 211 1411 199 1444 q 251 1379 222 1381 q 350 1376 315 1374 q 546 1390 392 1381 q 715 1401 656 1399 q 789 1404 757 1404 q 928 1403 807 1404 q 956 1403 938 1403 q 983 1403 975 1403 q 991 1403 983 1403 q 999 1403 999 1403 q 1147 1375 1106 1389 q 1251 1317 1210 1354 q 1299 1249 1286 1285 z "},"U":{"ha":1149,"x_min":68,"x_max":1329,"o":"m 1315 531 q 1326 508 1328 524 q 1322 482 1326 500 q 1244 250 1299 374 q 1154 69 1204 160 q 1090 -21 1124 17 q 971 -89 1036 -81 q 788 -17 853 -104 q 701 189 721 76 q 681 413 682 308 q 679 450 681 428 q 676 493 678 472 q 676 531 675 514 q 681 651 678 557 q 681 678 681 653 q 679 678 681 678 q 676 678 678 678 q 636 547 639 556 q 583 392 632 531 q 474 142 536 253 q 399 36 435 71 q 303 -12 360 -4 q 197 6 246 -21 q 132 72 158 26 q 76 250 92 144 q 69 394 69 301 q 69 474 69 399 q 69 553 69 549 q 79 804 69 606 q 97 1025 86 943 q 124 1176 113 1132 q 147 1239 132 1211 q 201 1274 165 1271 q 232 1274 219 1274 q 286 1224 281 1269 q 292 1133 293 1164 q 290 1074 290 1106 q 288 1007 289 1042 q 286 949 288 972 q 275 704 286 926 q 275 700 275 703 l 275 693 q 265 399 267 438 q 264 361 265 396 q 264 360 264 361 q 264 358 264 358 q 283 104 264 188 q 294 69 286 92 q 311 65 300 57 q 361 119 339 89 q 417 211 389 158 q 535 478 469 310 q 669 939 610 672 q 693 1039 672 950 q 724 1174 714 1128 q 765 1290 731 1213 q 815 1326 779 1322 q 863 1326 840 1329 q 918 1275 910 1322 q 922 1171 928 1222 q 921 1140 919 1147 q 919 1072 921 1108 q 915 992 918 1036 q 911 922 913 947 q 897 642 903 733 q 893 208 886 486 q 932 13 894 103 q 950 -21 939 -3 q 974 -25 958 -33 q 1022 10 994 -15 q 1076 78 1047 33 q 1189 303 1138 167 q 1261 483 1233 424 q 1275 510 1268 497 q 1285 524 1279 518 q 1315 531 1297 539 z "},"V":{"ha":607,"x_min":68,"x_max":900,"o":"m 875 1446 q 894 1418 899 1439 q 885 1388 892 1404 q 871 1358 878 1371 q 696 960 796 1214 q 471 376 572 649 q 389 117 408 206 q 380 79 386 104 q 371 43 374 54 q 356 17 367 26 q 328 6 346 8 q 290 3 307 1 q 225 49 244 7 q 178 185 200 104 q 114 492 149 289 q 90 653 101 569 q 85 711 88 674 q 82 761 83 749 q 76 867 78 799 q 74 957 75 935 q 69 1078 71 1024 q 75 1213 68 1158 q 86 1265 81 1246 q 121 1297 94 1290 q 174 1297 149 1304 q 214 1261 207 1290 q 225 1197 222 1221 q 235 1074 228 1157 q 246 949 242 992 q 258 827 250 906 q 268 726 267 749 q 303 460 276 639 q 336 254 307 435 q 342 247 336 247 q 346 251 344 249 q 372 311 357 276 q 569 808 435 458 q 711 1163 661 1047 q 792 1364 724 1190 q 828 1428 807 1403 q 875 1446 846 1453 z "},"W":{"ha":1406,"x_min":65,"x_max":1339,"o":"m 1336 764 q 1314 492 1338 664 q 1265 269 1299 381 q 1188 101 1233 168 q 1128 35 1161 63 q 913 3 1032 -40 q 838 50 871 18 q 781 113 806 81 q 651 403 676 253 q 646 421 650 410 q 643 426 646 422 q 631 406 638 425 q 593 319 617 375 q 558 238 569 263 q 479 103 529 169 q 358 10 429 36 q 260 1 313 -7 q 185 40 217 8 q 124 131 149 78 q 74 311 82 217 q 74 494 67 385 q 104 746 79 600 q 193 1083 124 865 q 228 1188 203 1114 q 253 1239 238 1218 q 298 1276 269 1265 q 356 1276 326 1286 q 381 1262 375 1271 q 388 1232 388 1253 q 369 1118 386 1181 q 319 890 338 988 q 289 671 301 793 q 272 504 272 519 q 264 258 260 339 q 289 113 269 165 q 302 76 296 89 q 315 62 308 64 q 333 67 321 60 q 396 115 367 83 q 444 176 422 144 q 529 340 479 229 q 619 592 581 456 q 628 642 628 618 q 654 861 626 735 q 678 935 661 894 q 746 979 697 978 q 790 974 775 979 q 815 943 813 964 q 821 894 819 913 q 821 873 821 885 q 822 847 821 861 q 822 825 822 833 q 853 464 826 638 q 893 275 871 343 q 969 89 935 149 q 996 56 983 67 q 1019 53 1007 46 q 1053 76 1036 61 q 1115 161 1088 111 q 1165 279 1144 213 q 1226 556 1206 404 q 1235 872 1243 678 q 1229 1010 1231 996 q 1194 1278 1218 1178 q 1175 1439 1186 1318 q 1192 1474 1172 1467 q 1239 1463 1219 1485 q 1254 1432 1247 1454 q 1317 1181 1300 1310 q 1335 879 1338 1025 q 1336 764 1335 835 z "},"X":{"ha":1049,"x_min":60,"x_max":1183,"o":"m 1178 432 q 1176 401 1182 419 q 1150 315 1156 331 q 1069 111 1108 199 q 933 -93 1015 -8 q 776 -175 856 -174 q 588 -114 674 -176 q 514 -36 549 -86 q 440 90 475 19 q 426 118 431 110 q 410 119 418 132 q 383 79 397 101 q 264 -114 300 -60 q 163 -246 247 -139 q 94 -272 136 -278 q 72 -235 60 -267 q 79 -222 75 -228 q 103 -177 86 -208 q 134 -122 121 -146 q 161 -76 147 -99 q 265 92 199 -18 q 350 232 332 201 q 356 283 365 256 q 269 553 300 439 q 217 811 239 661 q 199 994 207 888 q 201 1108 193 1067 q 212 1141 204 1129 q 231 1158 219 1153 q 264 1165 243 1164 q 265 1165 264 1165 q 267 1165 267 1165 q 328 1155 308 1168 q 363 1104 349 1142 q 408 947 382 1051 q 449 788 424 892 q 485 643 475 685 q 517 526 493 610 q 524 518 519 519 q 532 522 529 517 q 550 549 540 533 q 605 636 572 585 q 667 735 638 688 q 722 822 697 783 q 883 1063 810 961 q 915 1103 892 1074 q 949 1129 929 1118 q 978 1136 963 1136 q 1007 1127 1000 1138 q 1003 1097 1014 1117 q 914 944 965 1032 q 738 649 781 719 q 579 394 726 631 q 571 383 572 383 q 564 336 557 363 q 583 267 568 321 q 604 188 597 213 q 624 122 611 163 q 650 47 638 81 q 668 1 660 21 q 686 -36 676 -18 q 736 -103 708 -78 q 767 -122 754 -119 q 801 -111 779 -124 q 861 -69 832 -96 q 956 50 908 -25 q 1046 231 1003 125 q 1132 436 1057 258 q 1154 450 1139 451 q 1178 432 1172 449 z "},"Y":{"ha":988,"x_min":68,"x_max":919,"o":"m 910 967 q 915 828 911 936 q 917 661 918 719 q 903 499 914 588 q 881 368 894 425 q 785 115 849 222 q 617 -53 714 -3 q 411 -85 514 -107 q 303 -12 346 -71 q 296 192 231 86 q 401 310 332 251 q 643 444 500 393 q 672 455 650 447 q 704 467 693 463 q 725 493 724 474 q 726 499 725 496 q 727 506 726 503 q 728 512 728 508 q 729 518 729 515 q 736 644 736 628 q 736 1140 736 764 q 732 1157 736 1154 q 724 1139 729 1156 q 599 854 665 983 q 461 639 535 731 q 381 567 431 600 q 251 540 325 528 q 156 603 199 549 q 107 703 128 640 q 75 853 86 764 q 69 1035 68 914 q 90 1249 71 1124 q 107 1343 96 1285 q 125 1403 111 1368 q 176 1444 139 1438 q 229 1440 200 1449 q 257 1407 254 1433 q 258 1383 257 1400 q 247 1207 260 1326 q 240 1110 243 1161 q 233 779 228 911 q 257 649 235 715 q 278 606 265 624 q 294 590 288 592 q 317 596 301 588 q 369 632 344 610 q 450 721 417 676 q 638 1064 563 871 q 719 1307 694 1214 q 731 1342 722 1317 q 743 1382 740 1368 q 776 1415 749 1408 q 808 1417 793 1418 q 857 1381 846 1414 q 874 1318 868 1346 q 894 1175 883 1276 q 903 1069 899 1138 q 910 972 907 1000 q 910 967 910 969 m 715 406 q 713 417 717 414 q 700 417 708 419 q 632 389 661 401 q 400 231 494 332 q 348 158 368 194 q 329 90 328 121 q 411 -39 333 6 q 438 -46 421 -44 q 528 -21 489 -50 q 592 44 565 7 q 656 164 629 97 q 715 406 686 238 z "},"Z":{"ha":808,"x_min":67,"x_max":964,"o":"m 953 483 q 958 467 963 476 q 947 451 954 458 q 836 343 893 394 q 800 311 825 332 q 753 268 769 282 q 744 236 738 254 q 767 140 758 194 q 757 -25 778 64 q 624 -292 724 -168 q 513 -397 575 -350 q 339 -468 432 -456 q 304 -471 328 -469 q 288 -472 293 -471 q 278 -472 283 -472 q 163 -443 215 -472 q 144 -432 150 -436 q 103 -324 89 -390 q 147 -226 114 -272 q 189 -176 165 -201 q 335 -40 244 -118 q 442 53 369 -10 l 475 82 q 526 128 492 96 l 547 146 q 550 147 549 146 q 556 153 553 151 q 568 194 576 168 q 561 218 565 203 q 547 267 553 251 q 525 313 539 290 q 506 340 518 326 q 472 372 494 354 q 417 397 450 389 q 347 397 385 404 q 292 394 322 393 q 254 407 271 396 q 246 439 236 419 q 269 479 254 454 q 308 540 282 499 q 382 656 358 617 q 488 842 454 772 q 522 928 507 883 q 538 1006 535 964 q 518 1075 540 1047 q 451 1099 490 1108 q 388 1078 417 1092 q 276 1006 329 1050 q 126 839 190 929 q 88 821 111 815 q 72 831 76 824 q 71 850 68 839 q 88 885 75 867 q 135 949 107 911 q 310 1099 206 1040 q 453 1146 388 1142 q 636 1071 571 1154 q 657 1032 649 1054 q 669 926 674 985 q 656 826 667 868 q 581 660 635 750 q 465 513 536 585 q 431 475 454 500 l 425 468 q 424 467 424 468 q 426 464 424 464 q 481 458 451 464 q 706 319 624 433 q 708 315 706 318 q 711 310 710 311 q 717 305 715 306 q 724 310 719 304 q 740 324 729 314 q 794 376 778 358 q 899 468 836 418 q 932 485 917 482 q 953 483 944 488 m 182 -390 q 244 -424 208 -419 q 368 -393 313 -432 q 407 -361 392 -376 q 533 -169 489 -278 q 583 67 579 -56 l 583 78 q 582 104 582 96 q 581 107 582 107 q 579 107 579 107 q 576 107 578 107 l 576 106 q 572 104 574 104 l 558 92 q 486 29 510 49 q 443 -10 475 18 q 381 -64 400 -46 q 239 -197 294 -139 q 188 -264 210 -228 q 167 -353 163 -307 q 182 -390 169 -376 z "},"[":{"ha":517,"x_min":68,"x_max":667,"o":"m 653 1279 q 665 1257 667 1269 q 650 1236 664 1244 q 613 1226 632 1226 q 504 1235 543 1229 q 440 1243 483 1239 q 410 1246 421 1244 q 394 1247 406 1246 q 365 1250 375 1249 q 359 1249 360 1250 q 357 1243 358 1249 q 340 969 356 1135 q 333 899 338 944 q 322 778 326 818 l 318 736 q 290 490 301 572 q 282 417 288 467 q 271 322 275 354 q 263 253 268 300 q 253 171 257 199 q 243 100 249 147 q 236 46 239 64 q 226 -25 233 22 q 218 -74 221 -58 q 213 -121 215 -101 q 214 -128 213 -126 q 219 -129 215 -129 l 221 -129 q 249 -128 229 -129 q 265 -126 260 -128 l 297 -126 q 399 -122 365 -124 q 438 -125 411 -122 l 444 -126 q 485 -140 465 -128 q 499 -153 493 -146 q 496 -185 511 -169 q 478 -196 489 -192 q 440 -203 460 -203 q 357 -204 406 -204 q 300 -204 338 -204 l 281 -204 q 194 -199 251 -203 q 136 -194 156 -196 q 94 -185 111 -193 q 71 -149 71 -172 q 69 -137 71 -144 q 69 -106 69 -115 q 81 14 74 -67 l 86 65 l 88 65 q 90 107 89 81 q 101 215 96 179 q 111 301 104 244 q 124 407 118 372 q 132 479 126 431 q 141 556 138 531 q 150 633 144 582 q 160 710 156 685 q 168 768 163 729 q 174 815 171 800 q 186 903 178 844 q 193 940 190 928 l 193 942 q 194 953 193 949 q 217 1107 200 1004 q 222 1143 221 1132 q 247 1263 235 1221 q 256 1290 250 1275 q 292 1318 264 1315 q 315 1317 301 1318 q 408 1311 365 1311 q 454 1308 422 1311 q 478 1307 469 1308 q 575 1301 526 1304 q 617 1294 589 1301 l 622 1293 q 653 1279 639 1290 z "},"\\":{"ha":690,"x_min":65,"x_max":626,"o":"m 621 -164 q 590 -212 626 -200 q 550 -221 569 -221 q 526 -217 538 -221 q 493 -192 503 -210 q 478 -156 482 -172 l 436 -21 q 389 135 403 90 q 357 239 376 175 q 315 378 328 338 q 228 663 289 463 l 210 719 q 190 786 204 740 q 147 925 161 878 q 136 963 143 940 q 81 1164 96 1096 q 71 1211 74 1192 q 90 1250 65 1238 q 138 1261 113 1261 l 140 1261 q 147 1261 144 1261 q 200 1224 188 1258 q 213 1188 204 1211 q 236 1122 229 1144 q 315 868 276 999 q 358 725 331 819 q 382 642 374 669 q 464 369 410 551 l 471 347 q 558 50 518 188 q 578 -12 564 33 q 610 -121 600 -86 q 621 -164 618 -147 z "},"]":{"ha":485,"x_min":-64,"x_max":415,"o":"m 415 1247 q 415 1242 415 1243 q 414 1188 414 1224 q 411 1065 414 1106 q 404 924 408 1018 q 401 869 401 879 l 403 869 l 401 863 q 397 779 400 835 q 386 596 392 657 q 363 193 376 463 q 349 -75 354 14 q 349 -89 349 -81 q 342 -158 346 -135 q 301 -200 335 -193 q 267 -204 282 -204 q 215 -190 238 -204 q 175 -181 199 -179 q 122 -181 157 -182 l 114 -181 q 88 -181 106 -181 q 26 -179 47 -178 q -26 -172 8 -181 q -56 -157 -44 -168 q -62 -137 -64 -147 q -51 -121 -61 -128 q -15 -108 -37 -110 q 38 -106 14 -106 q 139 -107 72 -106 q 183 -107 172 -107 q 194 -107 190 -107 q 199 -104 199 -107 q 200 -83 200 -96 q 204 -8 201 -58 q 214 156 210 101 q 221 257 217 189 q 232 404 226 356 q 238 493 235 433 q 246 593 242 558 q 251 664 247 617 q 258 747 256 719 q 269 900 264 797 q 275 986 272 958 q 288 1143 282 1086 q 293 1189 289 1158 q 297 1210 296 1204 q 297 1214 297 1211 q 299 1222 299 1219 q 296 1226 299 1225 q 285 1226 292 1226 q 167 1229 246 1224 q 135 1231 144 1229 q 94 1243 111 1232 q 86 1260 86 1250 q 96 1276 86 1271 q 136 1288 113 1286 q 206 1290 176 1289 q 258 1292 222 1292 q 317 1292 297 1290 q 361 1290 332 1293 q 397 1279 379 1289 q 415 1251 415 1269 q 415 1247 415 1250 z "},"^":{"ha":638,"x_min":68,"x_max":569,"o":"m 556 983 q 568 935 568 957 q 565 911 568 921 q 556 897 563 901 q 536 889 549 892 q 514 886 524 886 q 449 917 475 886 q 411 974 424 946 q 342 1158 363 1081 q 339 1171 340 1165 q 328 1158 333 1167 q 174 992 249 1064 q 136 961 151 971 q 93 953 115 949 q 78 958 86 953 q 70 967 72 961 q 72 979 68 974 q 83 993 76 986 q 263 1203 181 1099 l 265 1206 q 315 1277 301 1251 q 354 1307 329 1303 q 411 1300 386 1313 q 429 1278 422 1293 q 443 1243 436 1258 q 556 983 503 1090 z "},"_":{"ha":650,"x_min":67,"x_max":583,"o":"m 567 108 q 579 78 583 93 q 553 56 576 61 q 519 50 533 51 q 413 44 469 47 q 321 42 382 43 l 282 40 q 265 39 274 39 q 146 54 206 39 q 97 72 118 61 q 74 93 82 82 q 71 114 68 104 q 83 129 74 124 q 122 135 104 138 q 200 131 150 129 q 399 136 271 132 q 421 138 407 138 q 449 139 440 139 q 521 131 486 140 q 558 114 540 126 q 567 108 564 111 z "},"`":{"ha":396,"x_min":64,"x_max":338,"o":"m 324 1113 q 307 1068 336 1083 q 272 1060 292 1060 q 268 1060 271 1060 q 190 1094 221 1060 q 79 1258 122 1172 q 72 1274 74 1268 q 82 1308 64 1296 q 158 1319 113 1329 q 206 1289 192 1313 q 260 1204 222 1260 q 278 1178 272 1188 q 299 1149 285 1168 q 313 1129 308 1135 l 313 1128 q 324 1113 321 1118 z "},"a":{"ha":788,"x_min":-1,"x_max":860,"o":"m 853 432 q 857 419 860 428 q 851 401 856 410 q 825 360 833 372 q 678 147 726 217 q 615 79 643 100 q 464 67 543 28 q 408 128 428 85 q 396 194 396 160 q 396 271 396 200 q 329 208 335 214 q 214 128 274 157 q 83 119 150 99 q 0 231 1 144 q 25 344 -1 288 q 299 631 115 540 q 399 661 347 654 q 483 653 447 668 q 528 644 506 643 q 571 639 551 646 q 596 603 596 629 q 592 572 594 586 q 556 400 581 519 q 524 185 542 338 q 535 115 518 149 q 560 107 543 99 q 596 136 574 115 q 733 297 658 193 q 752 324 742 310 q 773 353 763 338 q 790 379 783 368 q 826 425 799 390 q 835 433 831 431 q 853 432 843 439 m 450 567 q 450 589 453 579 q 421 600 442 613 q 383 572 404 592 q 317 497 349 538 q 192 286 232 390 q 168 183 169 228 l 168 185 q 168 181 168 183 q 174 164 169 167 q 192 165 179 161 q 208 174 200 169 q 267 214 239 192 q 378 340 325 263 q 415 431 408 383 q 442 543 422 481 q 450 567 447 560 z "},"b":{"ha":758,"x_min":-1,"x_max":854,"o":"m 842 428 q 853 416 851 424 q 846 401 854 408 q 822 388 836 392 q 651 318 778 372 q 636 311 640 313 q 622 285 619 304 q 615 165 628 240 q 503 -50 596 43 q 318 -131 429 -124 q 229 -122 261 -133 q 179 -92 196 -111 q 154 32 126 -35 q 199 99 168 65 q 310 192 238 142 q 418 257 357 224 q 435 265 432 264 q 453 292 451 274 q 454 305 453 293 q 456 322 456 317 q 443 426 453 389 q 413 486 432 464 q 372 497 396 507 q 292 440 319 475 q 226 339 264 404 q 222 331 225 336 q 215 319 218 325 q 210 310 213 314 q 189 249 194 285 q 169 146 183 219 q 169 142 169 144 q 167 136 168 139 q 167 131 167 133 q 166 126 167 129 q 164 122 165 124 q 120 67 157 88 q 43 63 83 47 q 13 84 25 68 q 0 119 1 100 q 1 163 0 144 q 38 454 31 403 q 154 903 72 697 q 228 1053 190 993 q 404 1226 299 1167 q 574 1274 492 1276 q 635 1264 603 1274 q 706 1185 690 1246 q 694 1046 721 1122 q 610 885 665 965 q 484 746 563 817 q 294 644 406 675 q 285 643 290 644 q 277 640 279 642 q 271 638 275 639 q 265 636 267 638 q 262 633 264 635 q 258 629 260 632 q 256 624 257 626 q 253 616 254 621 q 251 607 253 611 q 249 594 250 603 q 235 528 244 575 q 222 456 226 481 q 222 438 219 442 q 242 457 228 440 q 347 535 282 510 q 500 519 428 565 q 592 414 561 482 q 601 389 594 406 q 608 368 607 372 q 628 360 614 354 q 711 394 651 368 q 761 417 731 403 q 811 431 782 425 q 842 428 828 433 m 276 717 q 275 693 271 699 q 290 696 279 692 q 400 757 346 717 q 553 917 488 819 q 626 1092 608 1000 q 615 1199 639 1153 q 556 1225 596 1236 q 454 1164 493 1208 q 365 1021 394 1094 q 276 717 324 910 m 440 197 q 440 206 442 197 q 433 204 433 206 q 269 81 326 143 q 242 40 253 61 q 263 -58 214 -17 q 276 -67 271 -67 q 293 -61 282 -67 q 342 -18 318 -46 q 440 197 419 75 z "},"c":{"ha":517,"x_min":-8,"x_max":607,"o":"m 593 451 q 604 436 606 450 q 594 414 603 425 q 569 382 579 393 q 475 272 492 290 q 431 221 460 254 q 379 160 403 188 q 332 111 356 133 q 242 54 294 75 q 178 43 210 42 q 132 49 157 43 q 40 111 74 60 q 1 269 -7 181 q 67 493 13 390 q 142 594 96 547 q 282 665 194 650 q 390 651 339 675 q 451 588 429 633 q 436 564 461 568 q 410 569 422 563 q 392 581 403 572 q 379 592 390 583 q 363 603 368 600 q 331 617 344 617 q 296 599 318 617 q 276 575 288 593 q 221 451 244 526 q 171 226 188 344 q 179 132 167 190 q 190 107 182 118 q 207 100 197 99 q 247 117 222 103 q 332 183 292 143 q 406 262 358 210 q 463 322 454 314 q 532 410 489 351 q 567 444 547 432 q 593 451 581 453 z "},"d":{"ha":883,"x_min":-1,"x_max":1028,"o":"m 578 361 q 557 226 560 247 q 551 97 547 172 q 565 47 553 71 q 590 38 572 31 q 640 67 613 46 q 768 188 718 122 q 888 367 839 278 q 932 438 899 385 q 946 453 938 446 q 969 454 957 463 q 975 435 979 446 q 967 411 971 421 q 928 342 940 364 q 772 111 839 190 q 672 17 721 50 q 539 -25 610 -29 q 413 50 456 -21 q 371 193 371 115 q 370 220 371 196 q 369 258 369 244 q 365 264 369 264 q 360 261 361 264 q 313 208 326 224 q 225 117 279 168 q 179 86 207 99 q 81 79 136 64 q 31 114 51 86 q 0 200 4 149 q 0 243 0 201 q 65 493 0 379 q 193 614 113 576 q 282 638 233 633 q 417 628 361 647 q 429 627 425 625 q 436 639 433 629 q 439 647 438 642 q 440 654 440 651 q 564 974 494 835 q 688 1153 614 1074 q 826 1249 756 1224 q 914 1261 872 1264 q 965 1249 940 1260 q 1015 1188 1006 1229 q 1018 1074 1028 1138 q 876 826 997 924 q 681 717 792 760 q 647 681 654 706 q 578 361 596 483 m 675 772 q 677 767 675 769 q 682 765 679 764 q 690 768 688 767 q 879 903 813 822 q 924 975 910 938 q 946 1089 949 1039 q 938 1172 946 1150 q 924 1203 932 1193 q 894 1210 911 1218 q 867 1190 879 1203 q 813 1128 832 1158 q 763 1032 785 1086 q 676 782 743 982 q 675 772 676 779 m 408 521 q 411 549 414 543 q 383 571 408 556 q 381 572 382 571 q 299 558 335 593 q 269 518 283 544 q 232 424 246 474 q 169 182 203 326 q 169 163 167 168 q 196 182 182 168 q 281 267 224 210 q 365 353 338 324 q 385 390 381 367 q 408 521 392 435 z "},"e":{"ha":475,"x_min":-1,"x_max":604,"o":"m 594 410 q 593 386 603 401 q 574 360 581 367 q 550 333 563 347 q 526 305 538 319 q 504 278 514 290 q 482 249 494 265 q 460 221 469 232 q 354 106 410 158 q 240 46 300 56 q 103 67 161 32 q 18 174 44 101 q 0 288 0 219 q 8 360 -1 317 q 97 565 36 483 q 318 672 181 675 q 346 668 331 672 q 423 619 396 657 q 436 519 450 581 q 379 419 425 464 q 329 378 360 401 q 214 325 272 335 q 182 294 188 322 q 172 175 168 228 q 192 113 175 139 q 233 100 208 89 q 290 132 263 111 q 403 236 349 175 q 525 381 503 351 q 547 404 529 388 q 571 415 558 413 q 594 410 588 418 m 207 393 q 206 386 207 392 q 208 381 206 383 q 214 379 211 378 q 229 385 224 382 q 301 435 269 404 q 351 547 343 476 q 342 590 349 574 q 332 604 339 597 q 301 607 318 621 q 278 581 289 596 q 251 532 265 565 q 207 393 240 508 z "},"f":{"ha":418,"x_min":-1,"x_max":540,"o":"m 522 433 q 535 424 532 431 q 533 408 539 417 q 514 388 525 396 q 394 318 454 339 q 384 314 390 317 q 372 309 378 311 q 360 306 365 307 q 233 289 292 282 q 224 289 229 289 q 210 268 203 289 q 227 219 214 254 q 247 164 240 183 q 301 -54 292 38 q 299 -171 308 -121 q 278 -232 293 -200 q 193 -290 253 -283 q 144 -289 169 -292 q 53 -228 86 -283 q 25 -153 36 -197 q 12 -89 17 -119 q 6 -28 7 -58 q 0 31 6 -25 q 14 168 13 161 q 81 504 32 322 q 189 804 131 693 q 243 894 218 858 q 304 933 268 926 q 346 926 325 936 q 363 903 363 919 q 357 869 361 881 q 326 763 340 806 q 224 365 278 608 q 224 335 218 340 q 254 329 229 329 q 303 335 281 329 q 385 361 353 349 q 443 396 422 378 q 489 428 463 414 q 522 433 507 436 m 204 -139 q 183 90 211 -35 q 176 96 182 90 q 171 -140 161 -3 q 183 -200 174 -182 q 190 -194 190 -194 q 204 -139 203 -168 z "},"g":{"ha":743,"x_min":-58,"x_max":854,"o":"m 842 468 q 846 451 853 461 q 835 438 842 443 q 785 397 815 418 q 564 243 749 374 q 532 190 538 225 q 465 -168 514 46 q 400 -333 446 -251 q 333 -422 372 -385 q 206 -512 274 -479 q 78 -536 147 -543 q -6 -497 31 -532 q -50 -415 -42 -462 q -43 -318 -58 -369 q 8 -210 -31 -272 q 101 -90 49 -146 q 301 93 190 4 q 318 108 306 97 q 338 122 331 118 q 351 149 350 133 q 353 156 351 151 q 354 164 354 161 q 367 339 357 200 q 292 271 332 311 q 210 196 233 214 q 108 174 165 160 q 58 211 74 181 q 36 275 42 242 q 46 435 25 361 q 75 522 56 465 q 107 582 83 544 q 231 651 146 644 q 372 618 303 658 q 392 607 385 611 q 414 614 408 596 q 426 636 418 625 q 488 671 450 669 q 528 669 515 671 q 569 625 564 663 q 571 543 576 576 q 569 508 569 533 q 553 331 568 460 q 551 300 551 314 q 556 292 551 294 q 564 294 560 290 q 664 367 626 340 q 689 387 674 375 q 716 408 704 399 q 741 426 728 417 q 768 446 754 436 q 796 463 782 456 q 831 472 815 475 q 842 468 836 471 m 339 25 q 342 38 340 29 q 344 49 344 46 q 342 61 343 53 q 331 59 336 61 q 323 55 325 57 q 315 47 321 53 q 308 40 310 42 q 174 -94 207 -58 q 46 -282 92 -178 q 24 -375 24 -333 q 32 -429 24 -408 q 61 -468 40 -450 q 92 -487 81 -486 q 126 -476 103 -489 q 225 -381 183 -440 q 294 -226 271 -315 q 339 25 325 -108 m 389 508 q 375 543 393 529 q 304 588 333 574 q 288 593 296 592 q 267 585 274 597 q 257 560 260 571 q 194 340 201 372 q 176 247 178 260 q 206 268 204 268 q 300 349 265 319 q 333 378 311 358 q 361 404 354 399 q 381 442 378 419 q 389 508 388 501 z "},"h":{"ha":749,"x_min":-3,"x_max":835,"o":"m 828 460 q 832 446 833 456 q 814 403 829 428 q 799 379 807 392 q 785 355 792 367 q 769 331 778 343 q 755 307 761 318 q 740 283 749 296 q 725 258 732 269 q 706 226 725 257 q 678 179 688 194 q 657 148 671 168 q 638 119 643 128 q 560 71 613 81 q 469 83 507 61 q 410 161 421 107 q 404 260 400 207 q 429 401 411 331 q 445 464 435 424 q 460 521 456 504 q 468 556 461 522 q 446 538 457 553 q 386 458 406 486 q 350 407 374 440 q 321 364 326 374 q 208 185 257 274 q 176 125 182 136 q 117 74 158 88 q 39 79 76 60 q 21 94 26 85 q 0 157 -3 129 q 6 239 3 186 q 11 304 10 292 q 13 327 13 315 q 15 349 14 339 q 17 372 17 360 q 19 394 18 385 q 75 788 36 600 q 138 990 100 906 q 371 1233 211 1164 q 531 1250 451 1268 q 594 1211 571 1240 q 621 1142 618 1182 q 611 1053 622 1094 q 510 875 579 943 q 333 778 435 804 q 269 767 308 771 q 249 747 251 764 q 239 696 240 703 q 215 540 219 569 q 201 390 214 525 q 196 329 199 358 q 196 304 196 326 q 197 303 196 304 q 200 303 199 303 q 207 313 207 311 q 241 366 222 339 q 286 431 260 393 q 322 483 313 468 q 447 624 356 529 q 519 647 471 651 q 589 606 568 643 q 608 540 607 574 q 606 383 613 454 q 589 256 596 289 q 583 227 586 242 q 576 196 581 213 q 571 168 572 179 q 569 153 568 156 q 586 165 575 153 q 721 338 661 249 q 792 439 729 351 q 811 460 803 454 q 828 460 819 465 m 268 846 q 267 816 261 822 q 299 817 274 810 q 468 929 404 849 q 540 1119 539 1018 q 538 1149 539 1147 q 510 1199 533 1181 q 469 1206 492 1214 q 447 1196 457 1201 q 353 1106 385 1160 q 314 1022 326 1061 q 268 846 300 982 z "},"i":{"ha":367,"x_min":0,"x_max":490,"o":"m 483 438 q 485 424 489 431 q 471 396 476 403 q 332 208 375 264 q 264 132 299 164 q 153 76 211 85 q 79 86 115 72 q 25 135 44 100 q 0 239 6 171 q 0 272 0 240 q 46 532 6 426 q 75 590 58 567 q 133 631 97 622 q 199 628 169 639 q 231 583 229 618 q 221 522 231 564 q 190 400 214 493 q 153 213 161 283 q 154 154 149 176 q 176 144 160 135 q 208 164 193 153 q 329 281 269 210 q 385 349 350 304 q 426 401 421 394 q 453 432 432 410 q 468 440 460 439 q 483 438 478 443 m 214 728 q 144 761 171 726 q 132 801 129 781 q 168 878 139 850 q 215 897 189 897 q 292 888 249 900 q 329 835 329 876 q 317 786 329 808 q 285 749 306 764 q 239 729 264 733 q 214 728 238 729 z "},"j":{"ha":365,"x_min":-462,"x_max":497,"o":"m 485 464 q 494 455 492 461 q 492 442 497 449 q 467 419 479 428 q 419 385 451 408 q 368 349 386 361 q 289 290 344 332 q 203 225 233 247 q 179 185 183 211 q 149 -11 158 40 q 38 -336 115 -187 q -61 -469 0 -411 q -219 -553 -125 -533 q -328 -554 -269 -562 q -411 -508 -378 -547 q -453 -425 -444 -468 q -443 -322 -461 -375 q -371 -193 -421 -257 q -200 -19 -299 -103 q -42 108 -122 46 q -10 161 -14 129 q 10 292 -3 213 q 60 538 32 422 q 83 610 65 554 q 150 657 99 654 q 186 654 172 658 q 217 638 207 649 q 228 607 226 628 q 228 553 228 604 q 214 396 229 510 q 206 353 211 381 q 200 314 201 325 q 200 296 199 306 q 207 292 200 289 q 222 301 214 294 q 372 415 265 331 q 433 456 393 432 q 485 464 458 471 m -29 31 q -29 40 -28 33 q -33 44 -29 43 q -39 44 -36 46 q -49 36 -44 40 q -96 -4 -65 22 q -140 -40 -126 -31 q -312 -228 -226 -115 q -360 -311 -340 -264 q -376 -386 -376 -351 q -321 -497 -376 -453 q -271 -504 -299 -514 q -194 -450 -229 -490 q -112 -307 -144 -394 q -29 31 -57 -160 m 128 729 q 97 781 94 744 q 101 804 97 790 q 157 897 115 856 q 211 925 181 921 q 264 907 243 929 q 290 847 293 875 q 249 744 286 788 q 179 718 226 719 q 128 729 153 717 z "},"k":{"ha":765,"x_min":-3,"x_max":868,"o":"m 828 476 q 853 480 840 485 q 865 464 867 475 q 860 446 863 453 q 839 411 846 421 q 778 326 817 383 q 722 244 740 269 q 702 219 715 236 q 683 193 689 203 q 606 122 660 163 q 529 90 574 99 q 383 105 447 75 q 281 206 318 135 q 261 247 274 219 q 247 278 249 274 q 240 283 244 283 q 233 278 236 283 q 201 208 222 254 q 171 99 174 150 q 169 90 171 96 q 168 81 168 83 q 131 25 167 47 q 69 12 103 8 q 14 39 36 15 q 0 75 -1 54 q 7 148 3 97 q 13 225 11 199 q 28 369 21 310 q 58 558 39 465 q 139 863 94 731 q 218 1049 176 972 q 335 1196 267 1138 q 404 1236 368 1224 q 551 1250 488 1265 q 640 1201 601 1238 q 675 1097 683 1160 q 636 997 668 1044 q 469 840 568 890 q 393 806 443 828 q 314 783 351 788 q 285 757 290 781 q 276 717 282 743 q 267 679 269 690 q 211 404 235 540 q 211 394 211 404 q 215 394 213 394 q 229 418 229 417 q 344 565 274 493 q 458 660 396 618 q 568 694 514 697 q 604 688 588 693 q 661 646 642 676 q 675 576 681 615 q 601 449 664 497 q 458 376 546 406 q 375 358 438 369 q 364 342 358 356 q 438 189 413 225 q 467 154 450 169 q 521 144 492 132 q 599 199 558 163 q 707 325 656 251 q 733 363 711 332 q 766 412 754 394 q 794 449 778 429 q 828 476 808 465 m 308 850 q 310 833 306 836 q 328 836 314 831 q 411 874 379 856 q 557 1017 503 925 q 583 1111 583 1064 q 532 1194 588 1165 q 490 1194 511 1204 q 443 1156 463 1181 q 369 1032 397 1097 q 314 868 344 969 q 308 850 310 854 m 324 417 q 361 419 347 415 q 524 563 478 457 q 535 614 535 588 q 531 628 533 625 q 524 628 525 628 q 518 626 524 629 q 513 622 513 622 q 499 613 511 621 q 322 436 404 550 q 317 429 319 433 q 324 417 310 417 z "},"l":{"ha":400,"x_min":0,"x_max":656,"o":"m 589 1240 q 656 1144 654 1214 q 639 1069 656 1110 q 540 907 600 978 q 456 822 500 860 q 331 750 397 774 q 278 733 294 736 q 249 701 254 728 q 204 440 214 531 q 193 253 192 329 q 206 161 193 204 q 223 132 214 135 q 254 146 232 129 q 383 278 331 200 q 408 315 394 294 q 436 359 421 335 q 460 397 451 383 q 497 453 474 418 q 517 468 504 465 q 534 463 526 469 q 540 447 542 457 q 531 421 538 433 q 389 186 453 267 q 308 101 346 132 q 206 63 263 65 q 97 96 149 61 q 53 138 71 115 q 24 190 35 161 q 11 237 17 214 q 4 283 6 260 q 0 342 4 288 q 7 428 6 424 q 92 821 29 646 q 229 1076 144 968 q 410 1226 308 1178 q 547 1250 475 1256 q 589 1240 568 1247 m 561 1057 q 581 1138 582 1104 q 578 1168 578 1167 q 551 1202 571 1193 q 508 1200 532 1211 q 439 1149 467 1179 q 351 1015 386 1092 q 282 828 313 931 q 276 793 274 800 q 290 791 289 792 q 302 795 292 790 q 314 800 313 800 q 417 868 356 817 q 561 1057 513 949 z "},"m":{"ha":1017,"x_min":-3,"x_max":1136,"o":"m 1121 461 q 1131 455 1128 460 q 1132 443 1135 450 q 1111 410 1125 425 q 1074 367 1092 390 q 1033 312 1056 344 q 1000 267 1010 279 q 872 115 926 168 q 796 72 839 82 q 732 78 764 64 q 681 149 686 96 q 696 358 667 256 q 732 476 697 365 q 738 497 732 476 q 725 492 732 499 q 561 290 671 431 q 525 238 557 285 q 508 197 515 222 q 486 129 503 176 q 454 81 479 108 q 401 53 433 58 q 340 60 369 47 q 303 119 310 74 q 306 169 300 139 q 376 450 325 289 q 379 458 376 451 q 381 466 382 464 q 378 475 381 468 q 371 472 374 474 q 365 465 368 469 q 361 458 363 460 q 207 235 278 350 q 185 185 192 211 q 167 125 178 161 q 126 72 156 96 q 29 64 83 40 q 1 113 6 74 q 3 161 -1 132 q 82 539 31 344 q 100 597 88 560 q 182 657 119 653 q 239 649 213 658 q 265 614 263 639 q 265 568 268 596 q 242 438 260 522 q 232 392 238 422 q 235 388 232 389 q 240 388 238 386 q 254 404 244 392 q 350 529 343 519 q 424 613 369 551 q 511 633 454 647 q 568 575 557 622 q 571 542 571 565 q 557 397 575 486 q 554 368 551 376 q 576 393 563 374 q 742 585 663 506 q 749 590 744 586 q 754 597 753 594 q 808 620 776 618 q 864 606 840 622 q 897 556 889 589 q 901 479 907 522 q 858 290 892 396 q 821 167 853 274 q 819 149 817 154 q 824 146 821 144 q 835 153 828 147 q 939 260 882 189 q 1050 408 1003 339 q 1090 451 1065 429 q 1121 461 1106 464 z "},"n":{"ha":758,"x_min":-1,"x_max":853,"o":"m 836 429 q 842 428 839 429 q 848 425 846 428 q 851 419 850 422 q 851 413 853 417 q 847 397 850 404 q 826 364 833 372 q 729 219 799 326 q 644 107 704 182 q 610 72 629 89 q 499 47 560 32 q 433 103 451 60 q 413 196 415 149 q 429 375 408 281 q 468 538 429 378 q 468 553 471 550 q 461 553 464 554 q 455 547 458 551 q 451 540 451 542 q 332 389 389 472 q 276 305 313 360 q 231 235 240 250 q 210 185 214 211 q 199 133 207 167 q 190 101 196 121 q 157 68 182 76 q 38 65 94 44 q 23 73 29 69 q 13 81 17 76 q 6 91 8 85 q 1 104 3 97 q 0 121 0 111 q 10 211 0 153 q 30 318 17 249 q 49 418 43 388 q 85 581 69 532 q 94 613 90 600 q 142 656 107 644 q 242 656 192 671 q 281 596 285 642 q 268 494 276 557 q 260 451 265 481 q 254 418 254 422 q 253 399 251 403 q 259 399 257 397 q 263 401 261 400 q 265 406 264 403 q 267 408 267 408 q 442 608 338 510 q 464 629 457 624 q 542 647 494 656 q 610 592 590 638 q 626 525 625 554 q 625 454 626 472 q 592 233 615 346 q 582 195 589 219 q 572 164 575 171 q 564 122 571 157 q 568 113 563 115 q 596 132 578 115 q 767 350 703 229 q 808 413 782 379 q 836 429 821 428 z "},"o":{"ha":549,"x_min":-1,"x_max":644,"o":"m 625 453 q 638 447 633 453 q 642 432 643 440 q 624 400 638 419 q 544 324 597 361 q 461 282 506 296 q 429 249 438 274 q 331 97 396 161 q 228 45 289 54 q 117 63 168 36 q 14 179 38 103 q 3 222 7 201 q 0 265 0 243 q 7 394 -1 329 q 33 489 13 431 q 92 538 47 531 q 107 540 101 540 q 136 558 125 539 q 140 566 138 561 q 143 572 143 571 q 251 647 178 629 q 350 649 301 660 q 465 510 453 622 q 465 454 465 507 q 456 340 468 401 q 457 332 454 335 q 468 331 460 328 q 518 363 494 343 q 597 435 571 406 q 608 446 603 442 q 625 453 614 453 m 349 253 q 342 265 350 263 q 324 269 332 268 q 188 324 242 283 q 185 325 186 325 q 172 318 174 332 q 163 224 161 254 q 163 199 163 200 q 182 126 161 158 q 208 102 197 104 q 242 117 219 100 q 344 244 307 165 q 349 253 347 249 m 376 338 q 383 392 381 357 q 389 442 386 428 q 378 513 379 508 q 331 590 365 558 q 301 605 314 604 q 272 594 289 606 q 214 507 225 565 q 238 386 201 443 q 338 314 271 335 q 363 313 356 308 q 376 338 371 318 z "},"p":{"ha":690,"x_min":-89,"x_max":786,"o":"m 729 419 q 770 410 754 426 q 768 382 786 394 q 738 368 756 371 q 693 359 715 365 q 638 342 671 353 q 594 328 604 331 q 583 325 585 325 q 547 288 554 317 q 482 158 532 221 q 394 82 439 104 q 254 61 322 46 q 238 67 244 64 q 203 129 196 85 q 254 217 208 178 q 310 256 279 239 q 335 268 333 267 q 360 300 356 278 q 367 333 363 310 q 375 369 372 357 q 390 522 392 469 q 383 568 389 549 q 371 572 381 579 q 351 557 358 564 q 274 467 300 510 q 158 249 203 353 q 133 147 140 210 q 92 -196 101 -129 q 53 -476 83 -254 q 40 -526 51 -493 q 4 -558 32 -551 q -53 -558 -24 -565 q -83 -524 -81 -550 q -85 -458 -87 -492 q -71 -337 -81 -418 q -57 -217 -61 -257 q -49 -137 -54 -189 q -42 -72 -43 -86 q -28 60 -40 -56 q -18 149 -18 147 q -10 233 -18 157 q 1 347 -3 308 q 44 600 14 458 q 46 603 44 601 q 119 656 60 660 q 169 638 154 653 q 186 593 183 622 q 186 563 188 579 q 178 503 183 542 q 172 449 174 465 q 172 425 169 431 q 188 443 179 428 q 244 532 208 481 q 322 610 278 579 q 490 621 400 661 q 549 564 525 606 q 571 490 568 532 q 572 407 575 440 q 572 395 572 403 q 570 385 571 388 q 570 378 569 382 q 571 372 571 374 q 574 369 571 371 q 578 369 578 368 q 586 371 579 369 q 597 374 593 372 q 611 378 600 375 q 678 401 639 386 q 729 419 701 411 m 304 147 q 326 192 319 168 q 290 157 301 178 q 283 129 281 138 q 294 131 290 128 q 300 140 297 133 q 304 147 303 146 z "},"q":{"ha":754,"x_min":-15,"x_max":849,"o":"m 822 476 q 841 468 835 478 q 842 447 847 458 q 829 429 838 438 q 775 371 810 411 q 738 326 740 331 q 617 207 674 258 q 461 74 511 113 q 442 43 444 60 q 422 -48 435 15 q 403 -144 410 -111 q 402 -165 400 -161 q 421 -175 404 -168 q 501 -226 469 -193 q 543 -350 551 -278 q 467 -514 533 -450 q 399 -549 438 -542 q 324 -539 360 -556 q 275 -496 294 -526 q 250 -435 257 -467 q 236 -344 238 -381 q 234 -309 236 -339 q 233 -262 232 -279 q 236 -219 236 -225 q 234 -198 236 -204 q 226 -189 232 -192 q 204 -185 219 -186 q 133 -178 163 -181 q 114 -174 122 -176 q 97 -160 99 -169 q 106 -139 94 -150 q 126 -121 111 -132 q 170 -88 142 -110 q 210 -58 199 -67 q 217 -52 213 -56 q 226 -45 222 -49 q 235 -39 231 -42 q 261 6 257 -25 q 307 239 271 78 q 308 257 310 251 q 288 239 299 253 q 217 164 265 211 q 188 139 208 156 q 89 119 149 110 q 42 149 63 125 q 6 233 14 178 q 36 500 -14 367 q 122 618 64 571 q 300 653 201 681 q 401 597 356 636 q 422 584 414 583 q 439 601 429 585 q 461 632 446 615 q 560 661 500 679 q 589 617 594 653 q 582 583 588 604 q 553 477 576 564 q 517 343 529 390 q 471 167 511 324 q 469 156 471 167 q 483 158 475 151 q 739 399 643 281 q 768 436 750 411 q 801 469 781 456 q 822 476 811 476 m 242 -126 q 239 -115 244 -118 q 231 -117 236 -114 q 218 -126 228 -119 q 217 -135 214 -131 q 222 -137 217 -135 q 242 -126 239 -137 m 332 363 q 351 394 344 376 q 388 494 375 463 q 381 528 396 515 q 294 586 331 568 q 281 592 293 588 q 264 589 271 596 q 251 574 258 583 q 208 474 226 535 q 176 313 193 422 q 164 228 176 307 q 164 220 164 225 q 164 213 164 215 q 165 208 164 211 q 167 206 165 206 q 172 203 168 201 q 177 205 176 204 q 181 208 178 206 q 186 211 185 211 q 204 228 192 217 q 332 363 274 296 m 410 -251 q 397 -242 404 -246 q 388 -246 390 -237 q 386 -251 386 -249 q 379 -404 376 -365 q 390 -462 381 -433 q 404 -465 394 -476 q 444 -354 440 -421 q 410 -251 443 -289 z "},"r":{"ha":482,"x_min":19,"x_max":615,"o":"m 606 446 q 610 426 615 438 q 589 392 597 401 q 519 284 563 354 q 457 188 475 214 q 378 79 406 113 q 294 -1 336 29 q 142 -36 231 -47 q 101 -21 122 -33 q 57 43 65 0 q 58 113 53 68 q 174 401 81 279 q 224 457 175 404 q 219 474 236 471 q 149 496 192 479 q 133 498 138 500 q 122 485 129 496 q 78 418 96 444 q 38 403 65 397 q 28 422 21 407 q 43 451 35 438 q 78 521 56 472 q 74 553 85 539 q 58 572 67 561 q 31 633 38 601 q 47 714 21 678 q 118 756 72 750 q 131 756 122 756 q 178 737 161 756 q 192 686 196 718 q 175 606 188 643 q 169 576 167 583 q 190 553 171 569 q 303 515 240 510 q 332 515 331 515 q 358 510 346 515 q 372 472 385 497 q 358 449 369 464 q 208 89 256 294 q 204 58 206 76 q 206 33 201 43 q 218 28 210 25 q 246 42 235 35 q 361 138 310 79 q 533 385 454 243 q 569 435 546 408 q 583 447 575 442 q 606 446 594 454 m 125 671 q 122 703 126 693 q 117 672 114 693 q 122 667 117 665 q 125 671 124 667 z "},"s":{"ha":392,"x_min":-76,"x_max":508,"o":"m 493 407 q 496 381 508 394 q 464 358 483 365 q 421 340 443 351 q 384 320 399 329 q 344 294 369 311 q 307 271 318 278 q 286 229 283 256 q 288 193 286 228 q 260 54 293 115 q 177 -35 228 -6 q 58 -67 126 -65 q -33 -46 10 -68 q -56 -28 -49 -36 q -69 25 -76 -3 q -29 92 -60 60 q 78 183 13 138 q 83 188 79 185 q 108 208 106 203 q 103 242 110 213 q 68 375 101 250 q 43 517 49 450 q 71 636 36 583 q 111 674 88 663 q 258 693 190 713 q 301 672 283 686 q 324 647 315 661 q 326 613 333 629 q 297 593 318 597 q 247 611 265 588 q 228 626 235 628 q 221 623 224 626 q 217 617 218 619 q 216 609 217 615 q 215 603 215 603 q 217 556 213 585 q 239 457 221 528 q 249 413 243 438 q 262 364 256 389 q 272 321 268 339 q 288 314 276 307 q 376 369 360 358 q 447 410 396 383 q 493 407 474 424 m 118 115 q 118 121 118 121 q 115 129 117 129 q 106 128 111 132 q 43 69 67 97 q 22 40 35 60 q 15 8 14 26 q 31 -13 18 -7 q 57 -10 43 -19 q 72 3 63 -7 q 118 115 113 43 z "},"t":{"ha":508,"x_min":-168,"x_max":986,"o":"m 981 1090 q 984 1085 983 1089 q 983 1078 985 1081 q 963 1064 976 1069 q 839 1025 890 1035 q 725 1014 825 1022 q 682 1015 719 1014 q 665 1017 678 1015 q 646 1018 653 1018 q 507 1029 604 1018 q 415 1039 454 1035 q 403 1038 407 1039 q 398 1034 400 1038 q 393 1022 396 1031 q 378 966 389 1008 q 360 901 367 924 q 299 675 318 758 q 240 344 258 506 q 238 279 240 340 q 244 168 239 193 q 263 126 253 131 q 304 147 274 122 q 453 307 375 201 q 494 364 468 326 q 529 411 521 401 q 554 439 542 429 q 571 443 563 446 q 580 432 582 440 q 572 415 578 424 q 533 349 544 368 q 446 218 517 324 q 344 107 408 161 q 208 72 283 56 q 139 119 164 82 q 107 193 115 157 q 92 392 83 304 q 93 414 93 400 q 146 788 101 604 q 211 1024 174 896 q 213 1051 217 1046 q 188 1057 210 1057 q 13 1046 72 1058 q -90 1000 -42 1033 q -108 988 -108 988 q -150 986 -129 976 q -161 1013 -167 994 q -149 1033 -158 1022 q -110 1064 -133 1050 q 31 1108 -56 1096 q 208 1119 126 1122 q 238 1124 232 1119 q 253 1150 244 1128 q 278 1207 267 1182 q 294 1236 279 1210 q 396 1274 328 1293 q 429 1232 429 1265 q 421 1153 428 1218 q 418 1138 419 1147 q 415 1122 417 1128 q 431 1103 414 1106 q 438 1102 433 1103 q 447 1101 443 1101 q 454 1101 451 1101 q 521 1091 467 1099 q 604 1081 575 1083 q 789 1071 710 1067 q 917 1092 839 1075 q 965 1094 940 1097 q 981 1090 971 1094 z "},"u":{"ha":688,"x_min":-6,"x_max":792,"o":"m 772 433 q 786 428 781 433 q 789 414 792 422 q 778 393 785 403 q 643 176 679 233 q 600 118 639 171 q 557 76 583 96 q 439 61 507 42 q 361 151 372 81 q 354 264 350 218 q 358 329 354 268 q 351 331 356 331 q 338 306 339 307 q 226 119 294 219 q 192 76 211 97 q 156 54 175 60 q 76 53 115 43 q 21 106 35 65 q 11 140 14 125 q 3 303 -6 235 q 6 333 4 315 q 8 368 7 351 q 11 399 10 385 q 58 588 26 504 q 72 618 63 601 q 163 667 97 668 q 165 667 164 667 q 167 667 165 667 q 219 645 204 663 q 233 590 235 628 q 218 472 232 551 q 160 172 211 442 q 156 153 156 156 q 158 140 156 143 q 172 147 163 138 q 232 222 196 171 q 315 361 282 294 q 363 457 340 413 q 390 531 382 493 q 410 597 396 553 q 421 629 413 607 q 463 669 436 663 q 536 663 504 679 q 558 635 553 656 q 563 592 564 617 q 538 428 558 535 q 490 181 496 222 q 490 128 485 146 q 515 119 497 107 q 589 186 557 147 q 713 367 668 282 q 746 417 721 381 q 772 433 756 432 z "},"v":{"ha":535,"x_min":0,"x_max":621,"o":"m 571 451 q 605 455 589 461 q 611 438 621 449 q 600 425 606 431 q 503 368 551 381 q 396 374 442 353 q 385 378 389 376 q 371 372 376 381 q 364 363 368 369 q 299 238 304 250 q 214 103 275 190 q 174 63 197 81 q 71 43 126 28 q 22 85 36 53 q 12 115 15 100 q 7 144 8 129 q 0 247 6 153 q 3 313 1 268 q 7 384 6 358 q 13 447 8 410 q 24 515 18 485 q 46 589 33 560 q 94 631 61 619 q 157 625 126 642 q 181 596 175 615 q 185 546 186 575 q 174 396 181 493 q 163 214 174 389 q 162 210 163 213 q 161 206 161 208 q 161 201 161 204 q 160 190 161 197 q 160 176 160 182 q 163 164 161 169 q 174 169 169 165 q 184 182 179 174 q 190 192 189 190 q 285 340 231 243 q 321 411 314 393 q 321 450 331 432 q 301 517 307 479 q 319 632 293 575 q 358 668 331 658 q 411 667 385 678 q 440 625 438 657 q 438 549 446 579 q 421 490 433 532 q 449 406 406 439 q 475 400 461 396 q 532 428 504 410 q 571 451 556 443 z "},"w":{"ha":856,"x_min":-1,"x_max":944,"o":"m 932 478 q 940 472 938 478 q 940 461 943 467 q 900 404 931 442 q 886 390 896 399 q 874 376 876 381 q 772 331 835 333 q 742 326 747 331 q 725 300 736 322 q 676 210 703 257 q 606 121 651 164 q 467 69 540 64 q 344 128 394 75 q 311 178 328 144 q 297 178 306 190 q 282 150 293 171 q 236 85 263 117 q 128 45 199 38 q 28 111 58 53 q 0 208 4 156 q 0 269 0 213 q 60 567 0 419 q 78 604 65 581 q 100 625 86 619 q 183 626 142 643 q 204 600 200 621 q 203 575 206 592 q 172 354 175 381 q 156 147 153 201 q 158 117 157 122 q 175 111 164 104 q 204 139 189 119 q 288 274 251 196 q 300 329 296 290 q 338 504 308 424 q 375 581 354 546 q 401 617 388 603 q 488 643 436 654 q 522 600 522 635 q 518 561 521 586 q 511 521 514 535 q 479 351 499 468 q 463 229 472 308 q 472 154 458 188 q 485 132 478 142 q 504 126 493 121 q 524 138 515 131 q 600 208 575 172 q 669 324 643 268 q 673 332 671 326 q 676 340 675 338 q 671 372 685 358 q 619 500 628 415 q 625 585 615 550 q 640 621 631 606 q 688 656 656 649 q 743 649 719 663 q 778 601 768 636 q 783 497 792 546 q 768 418 782 488 q 767 414 767 417 q 766 409 767 411 q 765 404 765 407 q 763 399 764 401 q 763 394 763 396 q 768 377 761 383 q 786 371 775 371 q 810 379 797 372 q 850 411 832 393 q 899 461 888 450 q 917 475 908 471 q 932 478 921 478 m 718 513 q 718 553 724 536 l 718 513 z "},"x":{"ha":561,"x_min":-35,"x_max":694,"o":"m 676 464 q 690 459 685 464 q 693 447 694 454 q 679 406 690 422 q 655 367 667 389 q 631 319 643 344 q 610 278 619 294 q 476 119 553 178 q 314 64 403 65 q 157 121 221 69 q 140 133 142 132 q 126 132 133 139 q 114 119 118 125 q 47 57 100 100 q 21 43 36 47 q -8 42 6 38 q -26 72 -33 50 q 8 138 -14 108 q 60 206 54 199 q 69 257 79 228 q 44 396 56 300 q 39 558 38 461 q 46 615 39 585 q 92 654 54 650 q 132 656 111 657 q 181 615 169 651 q 197 543 186 599 q 206 494 200 528 q 215 443 211 461 q 219 428 217 438 q 224 423 221 424 q 231 425 228 422 q 250 447 243 438 q 353 572 315 535 q 406 625 382 603 q 468 647 435 650 q 485 644 478 646 q 503 614 507 638 q 485 574 500 596 q 414 475 456 525 q 263 299 308 350 q 251 250 243 276 q 281 174 264 207 q 315 133 292 153 q 360 125 336 117 q 390 136 383 133 q 540 256 476 176 q 611 358 569 293 q 635 407 613 361 q 656 449 653 446 q 676 464 663 463 z "},"y":{"ha":757,"x_min":-35,"x_max":882,"o":"m 871 444 q 878 436 876 442 q 876 425 881 431 q 851 403 869 415 q 780 356 818 382 q 718 312 742 329 q 647 258 694 294 q 583 211 599 222 q 557 161 558 193 q 535 -83 554 86 q 501 -262 521 -192 q 419 -449 469 -376 q 340 -537 386 -497 q 163 -615 264 -606 q 40 -593 93 -622 q -12 -546 6 -575 q -32 -479 -31 -517 q 0 -339 -35 -419 q 86 -189 32 -264 q 297 39 168 -74 q 361 92 333 69 q 376 121 376 104 q 379 153 378 129 q 381 192 381 178 q 383 386 382 256 q 378 421 383 411 q 361 390 363 392 q 328 324 357 381 q 286 239 300 268 q 249 171 275 218 q 241 160 246 167 q 235 150 236 154 q 155 113 211 110 q 74 163 99 117 q 56 233 58 192 q 58 353 53 290 q 79 508 65 433 q 99 581 86 546 q 163 626 114 624 q 199 624 185 628 q 220 616 213 621 q 233 603 228 611 q 240 581 238 594 q 240 519 243 560 q 197 229 232 403 q 194 211 196 225 q 197 208 194 211 q 217 232 206 214 q 296 371 269 318 q 325 427 304 388 q 357 489 346 467 q 394 599 390 554 q 397 611 394 601 q 408 636 401 626 q 425 651 415 646 q 451 657 435 656 q 506 653 486 660 q 543 618 535 644 q 550 592 549 601 q 564 482 563 525 q 567 406 564 451 q 565 303 571 346 q 564 264 564 290 q 568 255 564 257 q 576 256 572 253 q 594 268 585 260 q 782 410 661 314 q 838 442 801 426 q 871 444 854 450 m 350 -158 q 371 -3 351 -149 l 371 -1 l 369 -1 q 369 17 369 15 q 365 24 369 22 q 357 24 361 26 q 340 10 349 17 q 194 -149 257 -71 q 75 -339 117 -246 q 40 -450 46 -400 q 68 -539 35 -503 q 165 -554 111 -585 q 222 -506 196 -537 q 308 -347 281 -435 q 350 -158 332 -267 z "},"z":{"ha":772,"x_min":63,"x_max":889,"o":"m 869 457 q 884 445 881 454 q 879 428 888 436 q 854 404 867 411 q 710 281 803 371 q 631 199 656 226 q 621 158 615 179 q 635 49 629 124 q 621 -71 639 -10 q 540 -246 592 -174 q 472 -337 490 -314 q 297 -465 400 -426 q 167 -481 238 -487 q 139 -475 156 -479 q 87 -434 104 -462 q 76 -368 69 -406 q 110 -286 85 -328 q 225 -133 156 -212 q 354 0 269 -82 q 424 65 390 35 q 444 114 444 83 q 436 206 443 165 q 404 292 428 251 q 332 339 379 333 q 292 346 308 342 q 269 356 281 349 q 264 385 251 368 q 292 414 274 394 q 381 521 350 472 q 411 578 392 540 q 418 601 414 585 q 416 610 419 607 q 407 611 413 613 q 371 594 381 600 q 213 476 282 543 q 194 458 206 469 q 173 437 183 447 q 154 418 163 426 q 125 394 140 404 q 81 389 104 381 q 72 411 63 396 q 88 431 79 421 q 286 600 182 536 q 417 654 356 642 q 481 650 450 660 q 523 618 510 640 q 531 567 536 596 q 511 518 526 542 q 464 457 492 483 q 414 407 461 453 q 404 396 404 399 q 417 388 406 390 q 586 250 535 356 q 593 240 589 244 q 601 239 597 236 q 618 253 610 244 q 650 285 631 265 q 688 322 669 304 q 721 354 706 340 q 794 425 740 374 q 844 454 813 440 q 869 457 857 460 m 435 -26 q 436 -11 436 -24 q 435 -8 436 -10 q 429 -8 431 -8 q 422 -15 426 -10 q 335 -114 378 -64 q 214 -268 264 -192 q 179 -333 189 -306 q 169 -372 171 -357 q 176 -408 168 -393 q 204 -417 186 -426 q 269 -365 243 -394 q 435 -26 396 -222 z "},"{":{"ha":394,"x_min":68,"x_max":472,"o":"m 468 1386 q 457 1360 471 1374 q 440 1344 449 1353 q 385 1253 406 1308 q 338 1072 357 1182 q 317 850 324 999 q 314 815 315 825 q 310 731 313 782 l 308 710 q 296 656 307 685 q 222 572 276 597 l 219 571 q 214 568 217 569 q 214 567 214 568 q 215 563 215 564 q 232 456 232 522 q 232 426 232 446 q 232 364 233 385 q 218 260 226 319 q 214 222 217 247 q 210 199 211 207 q 190 -37 192 72 q 193 -65 190 -50 q 246 -185 207 -137 q 247 -186 246 -185 q 251 -190 250 -189 q 254 -204 256 -197 q 243 -215 251 -211 q 221 -219 233 -219 q 213 -219 217 -219 q 169 -204 186 -217 q 75 -58 83 -142 q 69 35 68 -4 q 71 82 69 50 q 74 181 71 147 l 75 196 q 83 297 79 264 q 89 432 92 364 q 89 453 89 439 q 89 472 90 465 q 86 536 89 513 q 78 574 86 549 q 93 613 68 600 q 129 619 111 621 q 150 633 142 619 q 163 668 161 653 l 163 675 q 164 711 164 699 q 161 804 164 742 l 160 826 q 161 965 157 915 q 200 1171 172 1086 q 268 1311 229 1258 q 376 1399 313 1374 q 431 1407 404 1410 q 443 1404 439 1406 q 468 1386 464 1400 z "},"|":{"ha":301,"x_min":68,"x_max":232,"o":"m 232 1093 l 232 1039 l 231 1039 q 231 1000 231 1026 q 231 900 232 933 q 228 769 229 856 q 225 628 226 675 q 224 519 224 592 q 221 397 222 438 q 218 297 219 364 q 215 188 217 225 q 213 -6 213 124 q 213 -74 213 -50 q 210 -136 213 -94 q 207 -181 207 -165 q 169 -229 206 -217 q 129 -236 147 -236 q 107 -233 118 -236 q 81 -219 89 -228 q 71 -192 74 -210 q 69 -167 69 -182 q 69 -147 69 -160 q 72 -68 69 -94 q 74 -60 72 -65 l 74 -57 q 76 74 74 -11 q 81 238 79 183 q 81 300 81 258 q 85 461 82 408 q 88 539 86 488 q 89 628 88 599 q 92 736 92 664 q 94 835 93 801 q 97 921 96 864 q 99 1008 97 979 q 101 1068 100 1029 q 104 1142 101 1118 q 106 1171 104 1153 q 111 1240 107 1217 q 113 1244 113 1242 q 114 1257 114 1253 q 138 1283 119 1276 q 203 1289 171 1297 q 228 1264 222 1283 q 232 1226 232 1247 q 232 1093 232 1182 z "},"}":{"ha":436,"x_min":68,"x_max":369,"o":"m 367 607 q 361 582 369 596 q 339 493 346 554 l 339 488 q 335 411 336 463 q 333 390 333 399 q 329 307 332 363 q 321 138 325 194 q 296 -51 314 14 q 260 -142 281 -103 q 235 -175 250 -161 q 215 -192 228 -181 q 190 -215 199 -207 q 140 -247 165 -236 q 108 -254 125 -254 q 97 -254 103 -254 q 78 -246 86 -253 q 69 -231 69 -239 q 76 -217 69 -222 q 101 -190 88 -208 q 132 -132 124 -164 q 157 -17 150 -57 q 158 -7 157 -11 q 158 1 158 -3 l 160 17 q 163 142 164 100 q 164 178 163 164 q 169 242 167 200 q 183 415 174 346 q 204 526 193 490 q 244 599 218 572 q 249 603 247 601 q 250 604 249 604 l 249 604 q 238 612 246 607 q 226 619 231 617 q 167 710 176 653 q 161 788 158 756 q 164 858 163 811 l 164 872 q 172 943 165 896 q 176 969 175 961 l 178 986 q 186 1057 185 1033 q 194 1211 190 1111 q 179 1358 199 1292 q 176 1365 178 1363 q 194 1394 174 1388 q 235 1399 217 1403 q 282 1372 263 1392 q 318 1311 307 1347 q 333 1229 326 1285 l 333 1224 q 333 1117 338 1190 l 333 1104 q 310 928 332 1047 q 281 774 296 861 q 278 714 276 749 q 322 642 281 664 q 347 628 335 635 q 367 607 363 619 z "},"~":{"ha":667,"x_min":64,"x_max":601,"o":"m 578 436 q 596 424 592 433 q 594 401 600 414 q 582 379 589 389 q 451 303 529 310 q 428 301 439 301 q 303 329 368 301 q 251 356 278 340 q 201 361 228 369 q 158 340 176 354 q 131 321 140 326 q 86 319 108 308 q 71 353 64 329 q 85 376 75 364 q 121 404 100 393 q 239 433 179 433 q 368 397 308 433 q 401 379 379 390 q 418 371 413 374 q 456 372 436 361 q 494 404 475 385 q 524 428 510 419 q 578 436 546 443 z "},"":{"ha":465,"x_min":0,"x_max":0,"o":""},"":{"ha":0,"x_min":0,"x_max":0,"o":""},"":{"ha":1422,"x_min":-61,"x_max":1572,"o":"m 1558 467 q 1569 455 1565 464 q 1569 438 1572 446 q 1565 428 1568 432 q 1558 422 1561 424 q 1549 417 1554 419 q 1544 414 1544 415 q 1400 290 1492 382 q 1321 208 1344 236 q 1310 168 1304 189 q 1324 58 1319 135 q 1311 -61 1328 0 q 1229 -236 1282 -164 q 1161 -328 1179 -304 q 986 -454 1090 -415 q 856 -471 928 -476 q 829 -465 844 -469 q 776 -424 793 -453 q 767 -358 760 -396 q 800 -276 774 -318 q 915 -124 846 -203 q 1043 10 960 -72 q 1114 75 1079 44 q 1133 124 1135 93 q 1125 215 1133 176 q 1093 301 1118 261 q 1021 349 1069 343 q 982 356 997 351 q 960 365 971 358 q 954 394 940 378 q 982 424 963 406 q 1069 531 1040 482 q 1100 588 1082 550 q 1108 611 1104 594 q 1105 619 1108 617 q 1097 621 1101 622 q 1060 604 1069 610 q 958 533 1008 575 q 875 458 908 492 q 795 363 842 424 q 728 272 749 303 q 658 171 707 242 q 617 113 635 135 q 571 69 600 92 q 511 42 542 47 q 433 50 472 33 q 374 100 394 67 q 353 258 344 149 q 299 210 338 246 q 238 158 261 175 q 100 99 167 103 q 24 114 60 97 q -29 163 -12 131 q -26 311 -61 219 q 172 569 29 464 q 357 649 268 640 q 508 631 408 653 q 540 617 531 625 q 547 550 560 599 q 481 190 503 372 q 492 104 474 131 q 503 93 497 96 q 528 103 514 90 q 615 189 575 143 q 672 261 656 235 l 690 286 q 822 469 756 393 q 976 610 893 553 q 1106 664 1038 650 q 1171 660 1140 669 q 1212 628 1199 650 q 1219 576 1225 606 q 1201 528 1215 551 q 1154 467 1181 493 q 1103 417 1150 463 q 1094 406 1094 408 q 1106 397 1096 400 q 1276 261 1224 365 q 1283 250 1279 254 q 1290 249 1286 246 q 1307 263 1299 254 q 1340 295 1319 275 q 1378 333 1360 315 q 1411 364 1396 350 q 1485 435 1431 383 q 1535 464 1501 450 q 1558 467 1550 471 m 406 556 q 406 578 408 568 q 376 589 397 600 q 340 561 360 581 q 272 486 304 526 q 147 274 188 379 q 125 172 125 215 l 125 174 l 125 169 q 130 153 125 156 q 147 154 135 150 q 164 163 156 158 q 222 203 196 181 q 335 328 281 251 q 371 419 364 372 q 399 532 378 469 q 406 556 403 549 m 1125 -17 q 1126 -1 1125 -14 q 1126 0 1126 -1 q 1125 1 1125 1 q 1119 1 1121 1 q 1113 -4 1115 0 q 1024 -103 1068 -54 q 903 -258 954 -182 q 868 -324 879 -296 q 858 -362 860 -347 q 865 -399 858 -383 q 894 -407 876 -417 q 958 -356 933 -385 q 1125 -17 1085 -212 z "},"":{"ha":1253,"x_min":-49,"x_max":1343,"o":"m 1333 451 q 1336 432 1343 444 q 1317 397 1324 407 q 1247 290 1290 360 q 1183 193 1203 221 q 1106 86 1133 118 q 1022 4 1064 35 q 869 -29 958 -42 q 829 -15 850 -26 q 785 49 792 6 q 786 118 779 74 q 901 407 808 285 q 951 463 903 410 q 947 479 964 476 q 876 501 919 485 q 860 503 865 506 q 849 490 856 501 q 836 469 844 483 q 822 445 828 454 q 808 425 817 436 q 789 407 799 414 q 766 393 778 399 q 734 380 754 388 q 710 371 714 372 q 604 325 694 365 q 589 319 593 321 q 575 292 572 313 q 568 172 581 249 q 456 -43 549 50 q 271 -122 382 -117 q 182 -114 214 -125 q 132 -85 149 -103 q 107 40 79 -26 q 151 107 121 72 q 263 199 190 149 q 371 264 310 232 q 388 274 385 272 q 406 300 404 282 q 407 313 406 301 q 408 331 408 324 q 396 433 406 397 q 365 494 385 471 q 325 504 349 514 q 244 447 272 483 q 179 347 217 411 q 172 333 178 343 q 163 318 165 324 q 142 257 147 292 q 122 154 136 228 q 120 142 122 150 q 117 129 118 133 q 73 76 110 96 q -4 69 36 56 q -34 92 -22 76 q -47 128 -46 108 q -46 171 -47 153 q -10 461 -17 411 q 107 911 25 706 q 181 1061 143 1000 q 357 1235 251 1174 q 526 1282 444 1283 q 588 1271 556 1281 q 658 1193 643 1254 q 647 1054 674 1131 q 563 893 618 974 q 437 753 515 824 q 247 653 358 683 q 235 650 243 651 q 226 647 228 649 q 219 644 224 646 q 215 641 215 643 q 211 636 214 639 q 208 628 208 633 q 206 618 207 624 q 201 603 204 613 q 195 568 199 588 q 188 533 192 549 q 181 498 185 517 q 175 463 178 479 q 175 446 172 450 q 194 465 181 449 q 300 543 235 518 q 453 528 381 572 q 544 421 514 490 q 553 397 547 413 q 561 375 560 381 q 581 367 567 361 q 664 401 604 376 q 717 424 710 422 q 731 428 721 425 q 747 434 740 431 q 760 443 754 438 q 783 482 767 451 q 804 526 800 515 q 801 558 813 544 q 786 578 793 567 q 758 639 765 608 q 774 719 747 683 q 846 761 800 756 q 857 761 850 761 q 906 742 889 761 q 919 692 924 724 q 901 611 915 649 q 897 583 894 590 q 918 558 899 575 q 1031 521 968 515 q 1060 521 1057 521 q 1086 515 1074 521 q 1100 478 1113 503 q 1086 454 1096 469 q 936 94 983 300 q 931 64 933 82 q 933 39 929 50 q 946 33 938 31 q 974 47 963 40 q 1089 143 1036 85 q 1261 390 1182 249 q 1297 440 1274 414 q 1311 453 1303 447 q 1333 451 1322 461 m 229 725 q 228 701 224 707 q 243 703 232 699 q 353 764 299 725 q 506 924 440 828 q 579 1099 561 1007 q 568 1207 592 1161 q 508 1233 549 1244 q 407 1172 446 1217 q 318 1029 347 1103 q 229 725 276 918 m 393 204 q 392 213 394 204 q 386 213 386 213 q 222 89 279 151 q 194 49 206 69 q 215 -51 167 -10 q 229 -59 224 -58 q 246 -53 235 -60 q 294 -11 271 -37 q 393 204 372 83 m 851 676 q 850 708 854 699 q 843 678 842 699 q 849 672 844 671 q 851 676 851 672 z "}}}
